<svg xmlns="http://www.w3.org/2000/svg" width="64" height="64" viewBox="0 0 64 64">
  <!-- Background -->
  <rect x="0" y="0" width="64" height="64" rx="10" fill="#0080ff" />
  
  <!-- Letter C -->
  <path d="M20,26 C20,22 24,18 32,18 C40,18 44,22 44,26" stroke="white" stroke-width="5" fill="none" stroke-linecap="round"/>
  <path d="M20,38 C20,42 24,46 32,46 C40,46 44,42 44,38" stroke="white" stroke-width="5" fill="none" stroke-linecap="round"/>
  
  <!-- Letter o -->
  <circle cx="32" cy="32" r="4" stroke="white" stroke-width="3" fill="white"/>
  
  <!-- Letter m -->
  <path d="M36,40 L36,32 M36,36 C36,34 38,32 40,32 C42,32 44,34 44,36 L44,40 M44,36 C44,34 46,32 48,32 C50,32 52,34 52,36 L52,40" stroke="white" stroke-width="3" fill="none" stroke-linecap="round"/>
</svg>