<svg xmlns="http://www.w3.org/2000/svg" width="600" height="400" viewBox="0 0 600 400">
  <!-- Background elements -->
  <rect x="0" y="0" width="600" height="400" fill="#f0f9ff" />
  
  <!-- Abstract financial graph -->
  <path d="M50,300 Q150,100 250,200 T450,150" stroke="#0080ff" stroke-width="4" fill="none" />
  <path d="M50,250 Q200,200 300,250 T450,200" stroke="#0067d6" stroke-width="3" fill="none" />
  <path d="M50,200 Q250,300 350,200 T450,250" stroke="#ff7d0e" stroke-width="3" fill="none" />
  
  <!-- Data points -->
  <circle cx="150" cy="180" r="6" fill="#0080ff" />
  <circle cx="250" cy="220" r="6" fill="#0080ff" />
  <circle cx="350" cy="160" r="6" fill="#0080ff" />
  
  <circle cx="200" cy="230" r="6" fill="#0067d6" />
  <circle cx="300" cy="190" r="6" fill="#0067d6" />
  <circle cx="400" cy="210" r="6" fill="#0067d6" />
  
  <!-- Logo element -->
  <rect x="450" y="50" width="100" height="100" rx="10" fill="#0080ff" />
  <text x="500" y="115" font-family="Arial, sans-serif" font-size="40" font-weight="bold" fill="white" text-anchor="middle">C</text>
  
  <!-- Financial icons -->
  <g transform="translate(100, 300)">
    <rect x="0" y="0" width="40" height="40" rx="5" fill="#0080ff" opacity="0.7" />
    <text x="20" y="25" font-family="Arial, sans-serif" font-size="16" font-weight="bold" fill="white" text-anchor="middle">$</text>
  </g>
  
  <g transform="translate(300, 320)">
    <rect x="0" y="0" width="40" height="40" rx="5" fill="#ff7d0e" opacity="0.7" />
    <text x="20" y="25" font-family="Arial, sans-serif" font-size="16" font-weight="bold" fill="white" text-anchor="middle">€</text>
  </g>
  
  <g transform="translate(450, 280)">
    <rect x="0" y="0" width="40" height="40" rx="5" fill="#0067d6" opacity="0.7" />
    <text x="20" y="25" font-family="Arial, sans-serif" font-size="16" font-weight="bold" fill="white" text-anchor="middle">₹</text>
  </g>
</svg>