<?xml version="1.0" encoding="UTF-8"?>
<svg version="1.1" xmlns="http://www.w3.org/2000/svg" width="1080" height="1080">
<path d="M0 0 C1.26454514 -0.00997513 2.52909027 -0.01995026 3.83195496 -0.03022766 C5.23617541 -0.03112349 6.64039603 -0.03178704 8.0446167 -0.03224182 C9.52137166 -0.03986223 10.99812265 -0.04828952 12.47486877 -0.0574646 C16.48950353 -0.07943194 20.50406211 -0.08821181 24.51875019 -0.09329104 C27.02762316 -0.09693285 29.53647614 -0.10317207 32.04534149 -0.11029243 C40.80015439 -0.13479745 49.55490798 -0.1478405 58.30975342 -0.15138245 C66.46628731 -0.15501562 74.62244442 -0.18489245 82.77886319 -0.22678703 C89.78365913 -0.26150303 96.78833033 -0.27693113 103.7932117 -0.27762848 C107.97589775 -0.27842104 112.15820036 -0.28714913 116.34079742 -0.31562614 C120.2775176 -0.34182861 124.21353711 -0.3440004 128.15030479 -0.3279705 C129.59223396 -0.32615754 131.03420359 -0.33283318 132.47604561 -0.34878922 C144.70021853 -0.47577789 144.70021853 -0.47577789 149.17932129 2.43661499 C153.68047017 7.04007621 155.32679986 11.07773967 155.34147644 17.48457336 C155.35138107 18.70972656 155.36128571 19.93487976 155.37149048 21.19715881 C155.367253 22.54167276 155.3626952 23.88618574 155.35784912 25.23069763 C155.36355598 26.65701328 155.37052147 28.08332437 155.37864685 29.5096283 C155.39656032 33.37338939 155.39541314 37.23692314 155.38970447 41.10071325 C155.38660945 44.33120352 155.39270867 47.56165033 155.39874321 50.7921344 C155.41278138 58.41654917 155.41123356 66.04085188 155.39984131 73.66526794 C155.38836532 81.51904563 155.40242847 89.37248163 155.42923778 97.22621429 C155.45142438 103.97971967 155.45802538 110.73311804 155.45216137 117.48665726 C155.44879709 121.51555509 155.45117125 125.54423401 155.4684124 129.57310104 C155.48392645 133.36372291 155.47987719 137.15384048 155.46110725 140.94444275 C155.45743339 142.33111096 155.46049469 143.71781689 155.47099304 145.10445023 C155.57304447 159.70465511 155.57304447 159.70465511 150.95379639 165.27415466 C144.71319645 170.67948562 137.39542932 169.85440803 129.50067139 169.82347107 C128.03317227 169.83217456 126.56568223 169.84254395 125.09820557 169.85444641 C121.12709923 169.88114684 117.15637448 169.88239314 113.18519592 169.87731981 C109.86507499 169.87517546 106.5450305 169.88495938 103.22492599 169.89453065 C95.39100132 169.91669229 87.55726847 169.9176113 79.72332764 169.90550232 C71.65067195 169.89341606 63.57871285 169.91806708 55.50617599 169.96064246 C48.56496116 169.99590034 41.62396784 170.00787343 34.68266678 170.00136697 C30.54136443 169.99774579 26.40055935 170.00296748 22.25933838 170.03079605 C18.3650962 170.0559881 14.47193895 170.05203474 10.57771301 170.02597427 C9.15191782 170.02125136 7.72604583 170.02668192 6.30033875 170.04322052 C-5.79050654 170.17332469 -5.79050654 170.17332469 -10.32452393 166.47761536 C-14.35381511 162.38592631 -15.29608037 158.86976848 -15.31362915 153.17689514 C-15.32215912 151.92635849 -15.33068909 150.67582184 -15.33947754 149.38739014 C-15.33877854 148.00410449 -15.33785548 146.62081894 -15.33673096 145.23753357 C-15.34271624 143.77871354 -15.34952178 142.31989668 -15.35708618 140.86108398 C-15.37475345 136.90028356 -15.37944186 132.93956956 -15.38071775 128.97873354 C-15.3821395 126.50353249 -15.38640952 124.0283534 -15.39171219 121.55315781 C-15.41021483 112.91619726 -15.4183825 104.27929844 -15.41680908 95.64231873 C-15.41560759 87.59429115 -15.43671067 79.54653171 -15.46829641 71.49857199 C-15.49445701 64.58634004 -15.50517647 57.67419568 -15.50389826 50.76191461 C-15.50338856 46.63466934 -15.50907588 42.50766238 -15.53025436 38.38046646 C-15.54963329 34.49797535 -15.54976394 30.61594995 -15.5352211 26.73344231 C-15.53313145 25.31045158 -15.53784335 23.88743172 -15.54994202 22.46449089 C-15.64600022 10.38212155 -15.64600022 10.38212155 -13.14083862 6.38069153 C-12.44960907 5.68553436 -11.75837952 4.9903772 -11.04620361 4.27415466 C-10.38620361 4.27415466 -9.72620361 4.27415466 -9.04620361 4.27415466 C-9.04620361 3.61415466 -9.04620361 2.95415466 -9.04620361 2.27415466 C-5.54479008 -0.06012102 -4.14100935 0.01748056 0 0 Z " fill="#39B6FD" transform="translate(150.04620361328125,401.72584533691406)"/>
<path d="M0 0 C1.37478516 0.01740234 1.37478516 0.01740234 2.77734375 0.03515625 C3.69644531 0.04417969 4.61554688 0.05320312 5.5625 0.0625 C6.27277344 0.07410156 6.98304688 0.08570313 7.71484375 0.09765625 C7.71484375 2.40765625 7.71484375 4.71765625 7.71484375 7.09765625 C8.70484375 7.09765625 9.69484375 7.09765625 10.71484375 7.09765625 C10.71484375 6.10765625 10.71484375 5.11765625 10.71484375 4.09765625 C11.70484375 3.76765625 12.69484375 3.43765625 13.71484375 3.09765625 C14.04484375 2.10765625 14.37484375 1.11765625 14.71484375 0.09765625 C19.99484375 0.09765625 25.27484375 0.09765625 30.71484375 0.09765625 C31.20984375 2.07765625 31.20984375 2.07765625 31.71484375 4.09765625 C33.69976017 3.83089421 33.69976017 3.83089421 35.71484375 3.09765625 C36.04484375 2.10765625 36.37484375 1.11765625 36.71484375 0.09765625 C41.99484375 0.09765625 47.27484375 0.09765625 52.71484375 0.09765625 C53.20984375 2.07765625 53.20984375 2.07765625 53.71484375 4.09765625 C54.70484375 4.09765625 55.69484375 4.09765625 56.71484375 4.09765625 C56.71484375 15.97765625 56.71484375 27.85765625 56.71484375 40.09765625 C51.43484375 40.09765625 46.15484375 40.09765625 40.71484375 40.09765625 C40.71484375 28.21765625 40.71484375 16.33765625 40.71484375 4.09765625 C39.72484375 4.09765625 38.73484375 4.09765625 37.71484375 4.09765625 C37.71484375 5.08765625 37.71484375 6.07765625 37.71484375 7.09765625 C36.72484375 7.09765625 35.73484375 7.09765625 34.71484375 7.09765625 C34.71484375 17.98765625 34.71484375 28.87765625 34.71484375 40.09765625 C29.76484375 40.09765625 24.81484375 40.09765625 19.71484375 40.09765625 C19.71484375 28.21765625 19.71484375 16.33765625 19.71484375 4.09765625 C18.39484375 4.09765625 17.07484375 4.09765625 15.71484375 4.09765625 C15.71484375 5.08765625 15.71484375 6.07765625 15.71484375 7.09765625 C14.72484375 7.09765625 13.73484375 7.09765625 12.71484375 7.09765625 C12.71484375 17.98765625 12.71484375 28.87765625 12.71484375 40.09765625 C7.76484375 40.09765625 2.81484375 40.09765625 -2.28515625 40.09765625 C-4.12792134 38.25489116 -3.41390036 35.66801866 -3.42410278 33.21630859 C-3.42207855 32.39340332 -3.42005432 31.57049805 -3.41796875 30.72265625 C-3.41892548 29.88299316 -3.4198822 29.04333008 -3.42086792 28.17822266 C-3.42154973 26.3994133 -3.41969542 24.62060148 -3.41552734 22.84179688 C-3.41017908 20.10931849 -3.4154723 17.37700449 -3.421875 14.64453125 C-3.42121422 12.92057255 -3.41993306 11.19661396 -3.41796875 9.47265625 C-3.41999298 8.64975098 -3.42201721 7.8268457 -3.42410278 6.97900391 C-3.39566458 0.14511387 -3.39566458 0.14511387 0 0 Z " fill="#F9FDFC" transform="translate(237.28515625,472.90234375)"/>
<path d="M0 0 C2.97628669 2.21313625 3.41425056 3.26149736 4.4375 6.8125 C4.66855433 9.92212136 4.62644122 13.00909498 4.5625 16.125 C4.55347656 16.96095703 4.54445313 17.79691406 4.53515625 18.65820312 C4.51170989 20.70975969 4.47584266 22.76116777 4.4375 24.8125 C6.51303648 25.3659764 8.28115964 25.8125 10.4375 25.8125 C11.4275 25.8125 12.4175 25.8125 13.4375 25.8125 C13.4375 19.2125 13.4375 12.6125 13.4375 5.8125 C11.4575 5.4825 9.4775 5.1525 7.4375 4.8125 C8.0859375 2.890625 8.0859375 2.890625 9.4375 0.8125 C12.0390625 -0.015625 12.0390625 -0.015625 15.0625 -0.4375 C16.06539063 -0.58703125 17.06828125 -0.7365625 18.1015625 -0.890625 C19.25785156 -1.03757812 19.25785156 -1.03757812 20.4375 -1.1875 C20.9325 0.2975 20.9325 0.2975 21.4375 1.8125 C22.2625 1.3175 23.0875 0.8225 23.9375 0.3125 C28.02287287 -1.43837409 31.06455617 -1.97149391 35.4375 -1.1875 C38.71762113 0.45256057 40.79045269 1.62624661 42.5625 4.875 C43.77555962 8.94741442 43.90228221 12.89591802 44.0625 17.125 C44.10117187 17.96095703 44.13984375 18.79691406 44.1796875 19.65820312 C44.27345159 21.70929259 44.35654245 23.76086515 44.4375 25.8125 C45.7575 26.4725 47.0775 27.1325 48.4375 27.8125 C48.1075 29.1325 47.7775 30.4525 47.4375 31.8125 C40.4375 31.8125 33.4375 31.8125 26.4375 31.8125 C25.18839844 31.82410156 23.93929687 31.83570313 22.65234375 31.84765625 C21.22656337 31.85690598 19.80078208 31.86601667 18.375 31.875 C17.65505859 31.88337891 16.93511719 31.89175781 16.19335938 31.90039062 C13.00064806 31.91521287 10.48940664 31.82980221 7.4375 30.8125 C5.14296505 30.90656754 5.14296505 30.90656754 2.75 31.25 C1.53763672 31.40275391 1.53763672 31.40275391 0.30078125 31.55859375 C-0.31410156 31.64238281 -0.92898438 31.72617187 -1.5625 31.8125 C-2.2225 30.4925 -2.8825 29.1725 -3.5625 27.8125 C-4.366875 28.4725 -5.17125 29.1325 -6 29.8125 C-9.43551083 32.0810796 -12.42445536 32.52074663 -16.50390625 32.328125 C-18.5625 31.8125 -18.5625 31.8125 -21.125 29.1875 C-22.67530193 25.54766069 -23.38721113 23.68864233 -22.5625 19.8125 C-18.13451164 14.9184076 -12.69407561 12.98157517 -6.5625 10.8125 C-6.5625 9.1625 -6.5625 7.5125 -6.5625 5.8125 C-7.8825 5.4825 -9.2025 5.1525 -10.5625 4.8125 C-11.119375 5.8025 -11.67625 6.7925 -12.25 7.8125 C-14.5625 10.8125 -14.5625 10.8125 -17.1875 11.375 C-19.5625 10.8125 -19.5625 10.8125 -21.5625 7.8125 C-21.5625 5.375 -21.5625 5.375 -20.5625 2.8125 C-14.79345801 -2.8047251 -7.24376866 -2.41458955 0 0 Z M24.4375 6.8125 C23.26673098 10.32480707 23.10180903 13.58838562 23 17.25 C22.95423828 17.91837891 22.90847656 18.58675781 22.86132812 19.27539062 C22.74629009 21.5256201 22.74629009 21.5256201 23.4375 24.8125 C26.31678643 27.33978924 26.31678643 27.33978924 29.4375 28.8125 C29.4375 28.1525 29.4375 27.4925 29.4375 26.8125 C30.7575 26.4825 32.0775 26.1525 33.4375 25.8125 C33.52437496 22.68767438 33.57784568 19.56315754 33.625 16.4375 C33.65013672 15.54804688 33.67527344 14.65859375 33.70117188 13.7421875 C33.71083984 12.89140625 33.72050781 12.040625 33.73046875 11.1640625 C33.7461792 10.37854004 33.76188965 9.59301758 33.77807617 8.78369141 C33.66568604 8.13319824 33.5532959 7.48270508 33.4375 6.8125 C29.42740901 4.13910601 28.44759099 4.13910601 24.4375 6.8125 Z M-12.5625 19.8125 C-12.2325 21.1325 -11.9025 22.4525 -11.5625 23.8125 C-8.27174004 23.43345792 -8.27174004 23.43345792 -5.5625 21.8125 C-5.52186168 20.14632885 -5.519779 18.47861905 -5.5625 16.8125 C-8.45758511 16.8125 -10.15946473 18.29479352 -12.5625 19.8125 Z " fill="#39B3F7" transform="translate(433.5625,474.1875)"/>
<path d="M0 0 C0 0.66 0 1.32 0 2 C0.82886719 1.51015625 1.65773438 1.0203125 2.51171875 0.515625 C6.42935537 -1.18655082 9.63202041 -1.3813865 13.8125 -1.25 C14.864375 -1.23356445 14.864375 -1.23356445 15.9375 -1.21679688 C21.01227809 -1.10892266 25.97847984 -0.71736002 31 0 C31 1.32 31 2.64 31 4 C30.01 4 29.02 4 28 4 C28.64200436 6.14698202 29.28870746 8.29255953 29.9375 10.4375 C30.47697266 12.22994141 30.47697266 12.22994141 31.02734375 14.05859375 C31.70889142 16.85867545 31.70889142 16.85867545 33 18 C33.67305018 16.39850114 34.33822227 14.79368971 35 13.1875 C35.37125 12.29417969 35.7425 11.40085937 36.125 10.48046875 C37.16633237 7.9668567 37.16633237 7.9668567 37 5 C36.34 4.67 35.68 4.34 35 4 C35 2.68 35 1.36 35 0 C36.27875 0.01160156 37.5575 0.02320313 38.875 0.03515625 C40.58333186 0.04454269 42.29166532 0.05364197 44 0.0625 C44.83917969 0.07087891 45.67835938 0.07925781 46.54296875 0.08789062 C50.60778938 0.10364574 54.53273118 -0.00601652 58.5625 -0.56640625 C60.2640625 -0.78103516 60.2640625 -0.78103516 62 -1 C63.73161437 0.73161437 63.14997413 3.10339174 63.17578125 5.4609375 C63.21155273 7.12769531 63.21155273 7.12769531 63.24804688 8.828125 C63.29087035 11.18471395 63.32219962 13.54154097 63.34179688 15.8984375 C63.36951172 17.0121875 63.39722656 18.1259375 63.42578125 19.2734375 C63.44036377 20.29872559 63.45494629 21.32401367 63.4699707 22.38037109 C63.76206208 25.14997293 63.76206208 25.14997293 66.03588867 26.85791016 C66.68404541 27.2347998 67.33220215 27.61168945 68 28 C67.67 29.32 67.34 30.64 67 32 C64.20826945 32.02690104 61.41679652 32.04679053 58.625 32.0625 C57.8309375 32.07087891 57.036875 32.07925781 56.21875 32.08789062 C50.2265625 32.11328125 50.2265625 32.11328125 48 31 C48.33 29.68 48.66 28.36 49 27 C50.32 26.67 51.64 26.34 53 26 C53 19.4 53 12.8 53 6 C50.36 5.67 47.72 5.34 45 5 C44.4740625 6.7325 44.4740625 6.7325 43.9375 8.5 C42.35409232 13.25783556 40.43152688 17.84088963 38.4375 22.4375 C38.13255615 23.14777344 37.8276123 23.85804688 37.51342773 24.58984375 C36.24882455 27.46850272 35.24331767 29.75668233 33 32 C29.875 32.125 29.875 32.125 27 32 C24.12207815 26.48189767 21.77232366 21.00624737 19.75 15.125 C19.481875 14.36703125 19.21375 13.6090625 18.9375 12.828125 C17 7.27264031 17 7.27264031 17 5 C16.01 5 15.02 5 14 5 C13.7525 5.639375 13.505 6.27875 13.25 6.9375 C12 9 12 9 10.125 9.9375 C8 10 8 10 4 7 C3.34 13.27 2.68 19.54 2 26 C3.98 26.66 5.96 27.32 8 28 C7.34 29.32 6.68 30.64 6 32 C3.22890693 32.05392397 0.45886182 32.09363455 -2.3125 32.125 C-3.09818359 32.14175781 -3.88386719 32.15851563 -4.69335938 32.17578125 C-5.8293457 32.18544922 -5.8293457 32.18544922 -6.98828125 32.1953125 C-8.03302612 32.21102295 -8.03302612 32.21102295 -9.09887695 32.22705078 C-11 32 -11 32 -14 30 C-14 29.34 -14 28.68 -14 28 C-12.35 27.34 -10.7 26.68 -9 26 C-9.33 19.73 -9.66 13.46 -10 7 C-11.32 6.34 -12.64 5.68 -14 5 C-13.67 3.68 -13.34 2.36 -13 1 C-11.58622218 0.63447197 -10.16879424 0.28304505 -8.75 -0.0625 C-7.96109375 -0.25972656 -7.1721875 -0.45695312 -6.359375 -0.66015625 C-3.89605178 -1.01497267 -2.34395868 -0.76877544 0 0 Z " fill="#37B4F6" transform="translate(680,474)"/>
<path d="M0 0 C3.74973906 -0.11622939 7.49901464 -0.1872595 11.25 -0.25 C12.31347656 -0.28351563 13.37695312 -0.31703125 14.47265625 -0.3515625 C15.49746094 -0.36445313 16.52226562 -0.37734375 17.578125 -0.390625 C18.99206543 -0.4220459 18.99206543 -0.4220459 20.43457031 -0.45410156 C23.77591045 0.13734235 24.95774592 1.3406274 27 4 C27 4.99 27 5.98 27 7 C27.99 7 28.98 7 30 7 C30 15.58 30 24.16 30 33 C29.01 33 28.02 33 27 33 C26.67 34.32 26.34 35.64 26 37 C25.34 37 24.68 37 24 37 C24 37.99 24 38.98 24 40 C15.75 40 7.5 40 -1 40 C-1 39.01 -1 38.02 -1 37 C-1.99 36.67 -2.98 36.34 -4 36 C-4 35.01 -4 34.02 -4 33 C-4.99 33 -5.98 33 -7 33 C-7 24.42 -7 15.84 -7 7 C-6.01 7 -5.02 7 -4 7 C-4 6.01 -4 5.02 -4 4 C-3.01 4 -2.02 4 -1 4 C-0.67 2.68 -0.34 1.36 0 0 Z " fill="#EFF9FB" transform="translate(197,473)"/>
<path d="M0 0 C0.00410889 1.22630127 0.00821777 2.45260254 0.01245117 3.71606445 C0.03420781 8.26190337 0.08846097 12.80687241 0.15258789 17.35229492 C0.17579829 19.32030913 0.19017073 21.28844809 0.19555664 23.2565918 C0.20482417 26.08461521 0.24576458 28.91066833 0.29296875 31.73828125 C0.2890361 32.61962234 0.28510345 33.50096344 0.28105164 34.40901184 C0.33631968 36.71792959 0.41625223 38.7650936 1 41 C3.36999745 43.16314722 3.36999745 43.16314722 6 44 C5.34 45.32 4.68 46.64 4 48 C1.20826945 48.02690104 -1.58320348 48.04679053 -4.375 48.0625 C-5.1690625 48.07087891 -5.963125 48.07925781 -6.78125 48.08789062 C-12.7734375 48.11328125 -12.7734375 48.11328125 -15 47 C-15.99 47.495 -15.99 47.495 -17 48 C-23.53333333 48.23333333 -23.53333333 48.23333333 -26 47 C-26 46.34 -26 45.68 -26 45 C-26.825 45.495 -27.65 45.99 -28.5 46.5 C-32.90158735 48.38639458 -35.24756711 48.536565 -40 48 C-43.32199976 45.87051297 -43.89590149 44.3367893 -45.0625 40.5625 C-45 37 -45 37 -43.25 34.375 C-39.17508261 30.88055518 -33.91110715 29.02120872 -29 27 C-29.33 25.02 -29.66 23.04 -30 21 C-30.99 21.33 -31.98 21.66 -33 22 C-33.2475 22.66 -33.495 23.32 -33.75 24 C-35 26 -35 26 -38.5 26.875 C-39.655 26.91625 -40.81 26.9575 -42 27 C-44 25 -44 25 -44.0625 21.5625 C-43 18 -43 18 -40.0625 16.0625 C-34.1965882 14.11926584 -28.31257365 14.2153768 -22.5 16.1875 C-19.45516391 18.39500616 -19.03164697 19.4034326 -18 23 C-17.76930601 26.1096534 -17.81105856 29.19658424 -17.875 32.3125 C-17.88402344 33.14845703 -17.89304687 33.98441406 -17.90234375 34.84570312 C-17.92579011 36.89725969 -17.96165734 38.94866777 -18 41 C-16.68 41 -15.36 41 -14 41 C-14 41.66 -14 42.32 -14 43 C-12.02 42.505 -12.02 42.505 -10 42 C-10.0441119 37.06973493 -10.11389864 32.14075563 -10.20751953 27.21118164 C-10.23574768 25.5342024 -10.2569531 23.85708965 -10.27099609 22.17993164 C-10.29240125 19.76899782 -10.33903426 17.35967216 -10.390625 14.94921875 C-10.39185364 14.19912033 -10.39308228 13.44902191 -10.39434814 12.67619324 C-10.50213254 8.35170447 -10.50213254 8.35170447 -13.03808594 5.00317383 C-13.68551758 4.67212646 -14.33294922 4.3410791 -15 4 C-14.67 3.01 -14.34 2.02 -14 1 C-12.23103898 0.63659714 -10.45973374 0.28459117 -8.6875 -0.0625 C-7.70136719 -0.25972656 -6.71523438 -0.45695312 -5.69921875 -0.66015625 C-3 -1 -3 -1 0 0 Z M-34 36 C-34.33 36.99 -34.66 37.98 -35 39 C-31.95086772 40.01111093 -31.95086772 40.01111093 -29 39 C-28.34227572 35.97065509 -28.34227572 35.97065509 -28 33 C-30.2640255 33 -32.20851034 34.79074448 -34 36 Z " fill="#3BB6F8" transform="translate(578,458)"/>
<path d="M0 0 C8.58 0 17.16 0 26 0 C26 0.99 26 1.98 26 3 C28.475 3.495 28.475 3.495 31 4 C31.02687279 5.81242052 31.04633715 7.62495233 31.0625 9.4375 C31.07410156 10.44683594 31.08570313 11.45617187 31.09765625 12.49609375 C31 15 31 15 30 16 C28.14712498 16.07226502 26.29166122 16.0838122 24.4375 16.0625 C23.42558594 16.05347656 22.41367188 16.04445313 21.37109375 16.03515625 C20.19740234 16.01775391 20.19740234 16.01775391 19 16 C18.67 14.68 18.34 13.36 18 12 C17.01 12 16.02 12 15 12 C15 9.03 15 6.06 15 3 C14.01 3 13.02 3 12 3 C11.67 4.32 11.34 5.64 11 7 C10.01 7 9.02 7 8 7 C8.33 19.54 8.66 32.08 9 45 C10.485 45.495 10.485 45.495 12 46 C12 46.99 12 47.98 12 49 C12.99 49 13.98 49 15 49 C14.98839844 48.21753906 14.97679687 47.43507813 14.96484375 46.62890625 C14.95582031 45.61699219 14.94679687 44.60507812 14.9375 43.5625 C14.92589844 42.55316406 14.91429687 41.54382813 14.90234375 40.50390625 C15 38 15 38 16 37 C18.35313555 36.92728259 20.70833668 36.91629132 23.0625 36.9375 C24.35285156 36.94652344 25.64320313 36.95554687 26.97265625 36.96484375 C27.97167969 36.97644531 28.97070312 36.98804688 30 37 C30 40.96 30 44.92 30 49 C29.01 49 28.02 49 27 49 C27 50.32 27 51.64 27 53 C18.09 53 9.18 53 0 53 C0 51.68 0 50.36 0 49 C-0.99 49 -1.98 49 -3 49 C-3 48.01 -3 47.02 -3 46 C-4.32 46 -5.64 46 -7 46 C-7 32.8 -7 19.6 -7 6 C-5.68 6 -4.36 6 -3 6 C-3 5.01 -3 4.02 -3 3 C-2.01 3 -1.02 3 0 3 C0 2.01 0 1.02 0 0 Z " fill="#F6FCFC" transform="translate(152,460)"/>
<path d="M0 0 C0 8.58 0 17.16 0 26 C4.84937703 27.34088357 4.84937703 27.34088357 9 26 C9 19.4 9 12.8 9 6 C6.525 5.505 6.525 5.505 4 5 C4.33 3.68 4.66 2.36 5 1 C10.445 0.01 10.445 0.01 16 -1 C16.66 -0.01 17.32 0.98 18 2 C18.66 1.505 19.32 1.01 20 0.5 C23.83232982 -1.41616491 26.79108279 -1.62322709 31 -1 C35.98469515 1.10464906 37.66555231 4.33110461 40 9 C40.07194869 11.88370333 40.09291708 14.74239664 40.0625 17.625 C40.05798828 18.42679687 40.05347656 19.22859375 40.04882812 20.0546875 C40.03703168 22.03649006 40.01909605 24.01825433 40 26 C41.32 26.33 42.64 26.66 44 27 C44.495 28.98 44.495 28.98 45 31 C41.73581765 32.63209118 38.14474787 32.10095518 34.5625 32.0625 C33.78583984 32.05798828 33.00917969 32.05347656 32.20898438 32.04882812 C30.13929654 32.03634939 28.06964313 32.01846064 26 32 C25.01 32 24.02 32 23 32 C10.66666667 32 -1.66666667 32 -14 32 C-15.125 28.25 -15.125 28.25 -14 26 C-13.01 26 -12.02 26 -11 26 C-11 19.4 -11 12.8 -11 6 C-12.65 5.67 -14.3 5.34 -16 5 C-15.26953125 3.08203125 -15.26953125 3.08203125 -14 1 C-12.01171875 0.13671875 -12.01171875 0.13671875 -9.6875 -0.3125 C-8.92824219 -0.47363281 -8.16898437 -0.63476562 -7.38671875 -0.80078125 C-5 -1 -5 -1 0 0 Z M21.8125 6.8125 C18.72280251 10.54144525 18.75412407 13.12514517 18.625 17.9375 C18.57601562 19.18402344 18.52703125 20.43054688 18.4765625 21.71484375 C18.65696609 25.14887275 18.65696609 25.14887275 21.3515625 26.984375 C23.98248212 28.28381832 23.98248212 28.28381832 26.75 27.3125 C29.12775858 26.20052397 29.12775858 26.20052397 30 24 C30.12335276 21.71080222 30.17558478 19.41748782 30.1875 17.125 C30.20167969 15.89007813 30.21585937 14.65515625 30.23046875 13.3828125 C30.01666894 10.24466613 29.75133499 8.56202363 28 6 C25.05883815 4.43138035 24.40363065 4.66556318 21.8125 6.8125 Z " fill="#3AB4F8" transform="translate(366,474)"/>
<path d="M0 0 C3.51227539 0 6.83683436 -1.41649076 10.17578125 -2.44140625 C13.19249486 -3.03807298 15.04185125 -2.68102384 18 -2 C18.01401855 -0.94087402 18.01401855 -0.94087402 18.02832031 0.13964844 C18.08205659 3.34380545 18.16569757 6.54650757 18.25 9.75 C18.26417969 10.86117188 18.27835938 11.97234375 18.29296875 13.1171875 C18.32519531 14.18710937 18.35742188 15.25703125 18.390625 16.359375 C18.41157227 17.34389648 18.43251953 18.32841797 18.45410156 19.34277344 C19.135091 22.65757174 20.65639807 23.65880795 23 26 C22.75 28.25 22.75 28.25 22 30 C19.22890693 30.05392397 16.45886182 30.09363455 13.6875 30.125 C12.90181641 30.14175781 12.11613281 30.15851563 11.30664062 30.17578125 C10.1706543 30.18544922 10.1706543 30.18544922 9.01171875 30.1953125 C7.96697388 30.21102295 7.96697388 30.21102295 6.90112305 30.22705078 C5 30 5 30 2 28 C2 27.34 2 26.68 2 26 C3.65 25.34 5.3 24.68 7 24 C7 17.4 7 10.8 7 4 C4.525 3.505 4.525 3.505 2 3 C2.04125 3.78375 2.0825 4.5675 2.125 5.375 C2 8 2 8 0 10 C-2.4375 10.375 -2.4375 10.375 -5 10 C-6.97610386 7.95575462 -8 6.8823175 -8 4 C-10.31 4 -12.62 4 -15 4 C-16.04350941 10.95253862 -16.46505172 15.7629069 -13 22 C-8.45194365 22.17835515 -5.1205746 21.99785435 -1 20 C-0.01 20.99 0.98 21.98 2 23 C-0.66213594 26.74670984 -2.48123313 28.89541254 -7 30 C-12.72749906 30.59396287 -17.09351096 30.30902749 -22 27 C-26.15371051 23.07705119 -27.70804026 18.62022506 -28 13 C-27.06694987 7.01292835 -24.82129696 2.7881619 -20 -1 C-13.45055552 -4.82050928 -6.27838217 -3.67515054 0 0 Z " fill="#40B6F5" transform="translate(510,476)"/>
<path d="M0 0 C1.05405029 -0.00143509 1.05405029 -0.00143509 2.12939453 -0.00289917 C3.61556081 -0.00357988 5.10173006 -0.0017332 6.58789062 0.00244141 C8.86595319 0.00779125 11.14381859 0.00249278 13.421875 -0.00390625 C14.86458377 -0.00324545 16.30729242 -0.00196425 17.75 0 C19.06742187 0.00112793 20.38484375 0.00225586 21.7421875 0.00341797 C24.875 0.1328125 24.875 0.1328125 26.875 1.1328125 C27.87996852 4.14771807 27.97835303 6.17462942 27.9375 9.3203125 C27.92847656 10.22136719 27.91945313 11.12242187 27.91015625 12.05078125 C27.89855469 12.73785156 27.88695312 13.42492187 27.875 14.1328125 C26.555 14.4628125 25.235 14.7928125 23.875 15.1328125 C20.875 10.3828125 20.875 10.3828125 20.875 8.1328125 C13.945 7.6378125 13.945 7.6378125 6.875 7.1328125 C6.875 11.4228125 6.875 15.7128125 6.875 20.1328125 C10.33985707 19.51248774 10.33985707 19.51248774 13.875 18.1328125 C15.39292644 15.63640122 15.39292644 15.63640122 15.875 13.1328125 C17.195 13.4628125 18.515 13.7928125 19.875 14.1328125 C19.875 20.0728125 19.875 26.0128125 19.875 32.1328125 C17.895 32.6278125 17.895 32.6278125 15.875 33.1328125 C15.689375 32.3490625 15.50375 31.5653125 15.3125 30.7578125 C14.03538373 27.73904908 14.03538373 27.73904908 10.25 26.8203125 C9.13625 26.5934375 8.0225 26.3665625 6.875 26.1328125 C7.205 30.4228125 7.535 34.7128125 7.875 39.1328125 C10.185 40.1228125 12.495 41.1128125 14.875 42.1328125 C14.875 43.1228125 14.875 44.1128125 14.875 45.1328125 C12.42224859 46.3591882 10.8244219 46.24696564 8.0859375 46.23046875 C7.14492188 46.22724609 6.20390625 46.22402344 5.234375 46.22070312 C4.24953125 46.21232422 3.2646875 46.20394531 2.25 46.1953125 C0.76113281 46.18854492 0.76113281 46.18854492 -0.7578125 46.18164062 C-3.2136016 46.16983395 -5.66927104 46.1533665 -8.125 46.1328125 C-8.785 44.8128125 -9.445 43.4928125 -10.125 42.1328125 C-9.3100708 41.78822998 -8.4951416 41.44364746 -7.65551758 41.08862305 C-4.77723257 39.31895815 -4.77723257 39.31895815 -4.55737305 35.85473633 C-4.55816237 34.51617771 -4.5862877 33.17745225 -4.63671875 31.83984375 C-4.64379349 31.13381516 -4.65086823 30.42778656 -4.65815735 29.70036316 C-4.6861247 27.44759666 -4.74885666 25.19732602 -4.8125 22.9453125 C-4.83758034 21.41735364 -4.86039399 19.88935577 -4.88085938 18.36132812 C-4.93595756 14.61752944 -5.02223714 10.87559391 -5.125 7.1328125 C-6.445 6.4728125 -7.765 5.8128125 -9.125 5.1328125 C-9.125 3.8128125 -9.125 2.4928125 -9.125 1.1328125 C-6.11895038 -0.37021231 -3.34834028 0.00286673 0 0 Z " fill="#37B6FA" transform="translate(323.125,459.8671875)"/>
<path d="M0 0 C1.32 0 2.64 0 4 0 C4.33 3.96 4.66 7.92 5 12 C3.35 12.33 1.7 12.66 0 13 C-0.8971875 11.576875 -0.8971875 11.576875 -1.8125 10.125 C-3.81562526 6.86035803 -3.81562526 6.86035803 -7 5 C-10.63939932 5.31730524 -10.63939932 5.31730524 -14 6 C-14.33 7.32 -14.66 8.64 -15 10 C-11.43366017 12.22240662 -7.81077451 14.04807251 -4 15.8125 C4.38220941 20.04489637 4.38220941 20.04489637 7 25 C7.82411837 30.12616749 7.87437887 34.38576209 5.375 39 C-1.33739881 44.65254637 -7.50384975 44.55294094 -16 44 C-17.66843813 43.67564973 -19.3353881 43.34344738 -21 43 C-22.32 43 -23.64 43 -25 43 C-25 37.72 -25 32.44 -25 27 C-23.35 27.33 -21.7 27.66 -20 28 C-18.94952356 30.31104818 -17.94992562 32.64583651 -17 35 C-13.7261463 37.68923697 -10.08796391 37.29730647 -6 37 C-5.01 36.34 -4.02 35.68 -3 35 C-2.74969023 32.41619823 -2.74969023 32.41619823 -3 30 C-4.10859375 29.48050781 -5.2171875 28.96101563 -6.359375 28.42578125 C-7.82322972 27.72200494 -9.2867542 27.01754145 -10.75 26.3125 C-11.47960937 25.97283203 -12.20921875 25.63316406 -12.9609375 25.28320312 C-18.09364613 22.78684029 -21.37938289 20.24123423 -24 15 C-24.57985258 6.15724816 -24.57985258 6.15724816 -21 2 C-13.85274576 -3.18526288 -8.31132828 -3.02230119 0 0 Z " fill="#39B3F5" transform="translate(625,462)"/>
<path d="M0 0 C3.70745625 2.89181588 4.86113993 4.93499851 6.125 9.4375 C5.795 11.0875 5.465 12.7375 5.125 14.4375 C-1.145 14.4375 -7.415 14.4375 -13.875 14.4375 C-13.215 17.4075 -12.555 20.3775 -11.875 23.4375 C-6.48247887 24.60059279 -4.45405045 24.32953186 0.125 21.4375 C2.9375 21.75 2.9375 21.75 5.125 22.4375 C4.78532174 25.60783042 4.12630809 26.43632607 1.6875 28.625 C-3.36489211 32.1986432 -7.81565117 31.875215 -13.875 31.4375 C-18.43898694 30.16972585 -20.30096747 28.21054344 -22.75 24.3125 C-25.0832258 19.61564807 -26.12687381 15.60480891 -24.875 10.4375 C-22.72618853 5.81718866 -20.17595797 2.39153585 -16.0625 -0.625 C-10.48866459 -2.26436336 -5.32558306 -2.61212531 0 0 Z M-12.875 6.4375 C-12.875 7.4275 -12.875 8.4175 -12.875 9.4375 C-10.235 9.4375 -7.595 9.4375 -4.875 9.4375 C-5.205 8.1175 -5.535 6.7975 -5.875 5.4375 C-9.36081856 4.2354936 -9.55492344 4.22411563 -12.875 6.4375 Z " fill="#36B2F8" transform="translate(659.875,474.5625)"/>
<path d="M0 0 C4.33219178 2.75684932 4.33219178 2.75684932 5.75 5.75 C5.75 8.72 5.75 11.69 5.75 14.75 C-0.52 14.75 -6.79 14.75 -13.25 14.75 C-11.64467611 20.44302969 -11.64467611 20.44302969 -9.25 23.75 C-6.42037671 24.76370127 -6.42037671 24.76370127 -3.25 24.75 C-1.56243867 23.78567924 0.10666496 22.78789581 1.75 21.75 C4.0625 22.0625 4.0625 22.0625 5.75 22.75 C5.20712148 26.55014965 3.63535357 28.28896313 0.75 30.75 C-4.68617053 32.56205684 -10.23215186 32.4599836 -15.625 30.5625 C-20.45133911 27.23002776 -23.01238368 23.48803931 -24.25 17.75 C-24.06993278 12.07788267 -23.21114621 7.03671987 -19.25 2.75 C-13.11326611 -1.27389321 -6.99414241 -2.69005477 0 0 Z M-9.25 4.75 C-11.03969026 7.17672567 -11.03969026 7.17672567 -12.25 9.75 C-9.28 9.75 -6.31 9.75 -3.25 9.75 C-3.91 8.1 -4.57 6.45 -5.25 4.75 C-6.57 4.75 -7.89 4.75 -9.25 4.75 Z " fill="#38B2F5" transform="translate(803.25,474.25)"/>
<path d="M0 0 C3.125 1.6875 3.125 1.6875 5.125 4.6875 C4.75 7.875 4.75 7.875 4.125 10.6875 C1.9375 11.5 1.9375 11.5 -0.875 11.6875 C-3.4375 9.3125 -3.4375 9.3125 -5.875 6.6875 C-7.94390419 5.64460245 -7.94390419 5.64460245 -9.875 5.6875 C-12.76075715 8.57325715 -12.8326905 11.76681953 -12.875 15.6875 C-12.166749 20.05275082 -12.166749 20.05275082 -9.875 23.6875 C-7.8340495 23.62271484 -7.8340495 23.62271484 -5.5 23.3125 C-4.70851563 23.22226562 -3.91703125 23.13203125 -3.1015625 23.0390625 C-0.71081507 22.72410446 -0.71081507 22.72410446 2.125 21.6875 C2.785 22.0175 3.445 22.3475 4.125 22.6875 C3.7905974 25.78072404 3.5654882 27.27637768 1.25 29.4375 C-3.3335947 32.13373218 -7.70626863 32.15738467 -12.875 31.6875 C-18.37964091 29.88790586 -21.08720514 26.57447107 -23.875 21.6875 C-25.41533038 17.06650885 -25.4135555 13.23980704 -23.8125 8.625 C-18.20036239 0.11627523 -9.91116163 -3.96031772 0 0 Z " fill="#39B2F4" transform="translate(772.875,474.3125)"/>
<path d="M0 0 C0.845625 0.33 1.69125 0.66 2.5625 1 C2.5625 3.64 2.5625 6.28 2.5625 9 C0.5825 9.99 0.5825 9.99 -1.4375 11 C-2.035625 10.175 -2.63375 9.35 -3.25 8.5 C-3.971875 7.675 -4.69375 6.85 -5.4375 6 C-6.4275 6 -7.4175 6 -8.4375 6 C-7.12541569 9.93625294 -5.45263312 10.46519764 -1.9375 12.5625 C3.46130405 15.7976081 3.46130405 15.7976081 4.5625 18 C5.1436138 25.08958838 5.1436138 25.08958838 2.6875 28.9375 C-1.01384022 32.52997727 -4.15728371 32.12132639 -9.0625 32.0625 C-10.12210938 32.05573242 -10.12210938 32.05573242 -11.203125 32.04882812 C-12.94795275 32.03703875 -14.692737 32.01910324 -16.4375 32 C-18.22159802 28.93753253 -18.66630021 26.77920727 -18.5625 23.25 C-18.54445313 22.45078125 -18.52640625 21.6515625 -18.5078125 20.828125 C-18.47300781 19.92320312 -18.47300781 19.92320312 -18.4375 19 C-16.7875 19 -15.1375 19 -13.4375 19 C-12.7775 20.98 -12.1175 22.96 -11.4375 25 C-9.4575 25 -7.4775 25 -5.4375 25 C-6.65138652 21.35834045 -7.68044152 20.96273673 -10.875 19 C-13.97383749 17.08996212 -15.37524972 16.09337542 -17.4375 13 C-17.77811873 9.9830912 -18.00962107 7.90592185 -17.4375 5 C-12.34915784 -1.29347583 -7.7914077 -2.26659133 0 0 Z " fill="#38B2F6" transform="translate(830.4375,474)"/>
<path d="M0 0 C2.97 0 5.94 0 9 0 C9 2.31 9 4.62 9 7 C10.32 7 11.64 7 13 7 C13 17.23 13 27.46 13 38 C8.71 38 4.42 38 0 38 C0 25.46 0 12.92 0 0 Z " fill="#FBFEFC" transform="translate(236,474)"/>
<path d="M0 0 C-0.33 0.61875 -0.66 1.2375 -1 1.875 C-2.14193235 3.91018344 -2.14193235 3.91018344 -2 6 C-1.01 6 -0.02 6 1 6 C1 15.24 1 24.48 1 34 C2.32 34 3.64 34 5 34 C5.33 33.01 5.66 32.02 6 31 C6 32.32 6 33.64 6 35 C4 37 4 37 1.6171875 37.1953125 C0.25980469 37.16050781 0.25980469 37.16050781 -1.125 37.125 C-2.03507813 37.10695313 -2.94515625 37.08890625 -3.8828125 37.0703125 C-4.58148438 37.04710937 -5.28015625 37.02390625 -6 37 C-6 36.01 -6 35.02 -6 34 C-7.32 34 -8.64 34 -10 34 C-10 33.01 -10 32.02 -10 31 C-10.99 31 -11.98 31 -13 31 C-13 22.42 -13 13.84 -13 5 C-12.01 5 -11.02 5 -10 5 C-10 4.01 -10 3.02 -10 2 C-6.49223216 0.39644899 -3.85645121 -0.22036864 0 0 Z " fill="#F9FDFC" transform="translate(203,475)"/>
<path d="M0 0 C0 8.58 0 17.16 0 26 C-0.66 26 -1.32 26 -2 26 C-2.33 26.66 -2.66 27.32 -3 28 C-5.5625 28.625 -5.5625 28.625 -8 29 C-11.13293435 23.85244907 -11.37993835 19.94749378 -11.1875 14.125 C-11.17396484 13.34125 -11.16042969 12.5575 -11.14648438 11.75 C-11.11141789 9.83303218 -11.05762072 7.91642249 -11 6 C-12.65 5.67 -14.3 5.34 -16 5 C-15.26953125 3.08203125 -15.26953125 3.08203125 -14 1 C-12.01171875 0.13671875 -12.01171875 0.13671875 -9.6875 -0.3125 C-8.92824219 -0.47363281 -8.16898437 -0.63476562 -7.38671875 -0.80078125 C-5 -1 -5 -1 0 0 Z " fill="#3CB5FC" transform="translate(366,474)"/>
<path d="M0 0 C0.33 0 0.66 0 1 0 C1 8.58 1 17.16 1 26 C2.32 25.67 3.64 25.34 5 25 C7.25 26.4375 7.25 26.4375 9 28 C8.67 29.32 8.34 30.64 8 32 C5.22890693 32.05392397 2.45886182 32.09363455 -0.3125 32.125 C-1.09818359 32.14175781 -1.88386719 32.15851563 -2.69335938 32.17578125 C-3.8293457 32.18544922 -3.8293457 32.18544922 -4.98828125 32.1953125 C-6.03302612 32.21102295 -6.03302612 32.21102295 -7.09887695 32.22705078 C-9 32 -9 32 -12 30 C-12 29.34 -12 28.68 -12 28 C-10.35 27.34 -8.7 26.68 -7 26 C-7 19.4 -7 12.8 -7 6 C-6.34 6 -5.68 6 -5 6 C-5 5.01 -5 4.02 -5 3 C-3.68 3 -2.36 3 -1 3 C-0.67 2.01 -0.34 1.02 0 0 Z " fill="#38B6FB" transform="translate(524,474)"/>
<path d="M0 0 C2 3 2 3 3 5 C4.65 5 6.3 5 8 5 C8.33 4.01 8.66 3.02 9 2 C10.60875 2.5259375 10.60875 2.5259375 12.25 3.0625 C16.27856422 4.17786039 16.27856422 4.17786039 20 3 C20.33 2.01 20.66 1.02 21 0 C21 1.32 21 2.64 21 4 C23.97 4.495 23.97 4.495 27 5 C27 5.99 27 6.98 27 8 C28.32 8 29.64 8 31 8 C31.33 6.68 31.66 5.36 32 4 C33.093125 3.855625 34.18625 3.71125 35.3125 3.5625 C38.93122987 3.11711896 38.93122987 3.11711896 42 2 C42.66 2.33 43.32 2.66 44 3 C44 3.66 44 4.32 44 5 C43.34 5 42.68 5 42 5 C42 5.99 42 6.98 42 8 C43.98 8 45.96 8 48 8 C48 5.69 48 3.38 48 1 C53.75 2.75 53.75 2.75 56 5 C56 5.99 56 6.98 56 8 C52.73581765 9.63209118 49.14474787 9.10095518 45.5625 9.0625 C44.78583984 9.05798828 44.00917969 9.05347656 43.20898438 9.04882812 C41.13929654 9.03634939 39.06964313 9.01846064 37 9 C36.01 9 35.02 9 34 9 C21.66666667 9 9.33333333 9 -3 9 C-4.125 5.25 -4.125 5.25 -3 3 C-2.01 3 -1.02 3 0 3 C0 2.01 0 1.02 0 0 Z " fill="#24ADF8" transform="translate(355,497)"/>
<path d="M0 0 C5.94 0 11.88 0 18 0 C18 0.99 18 1.98 18 3 C20.475 3.495 20.475 3.495 23 4 C23.02687279 5.81242052 23.04633715 7.62495233 23.0625 9.4375 C23.07410156 10.44683594 23.08570313 11.45617187 23.09765625 12.49609375 C23 15 23 15 22 16 C20.14712498 16.07226502 18.29166122 16.0838122 16.4375 16.0625 C15.42558594 16.05347656 14.41367188 16.04445313 13.37109375 16.03515625 C12.19740234 16.01775391 12.19740234 16.01775391 11 16 C10.67 14.68 10.34 13.36 10 12 C9.01 12 8.02 12 7 12 C7 9.03 7 6.06 7 3 C6.01 3 5.02 3 4 3 C3.67 4.32 3.34 5.64 3 7 C1.35 6.67 -0.3 6.34 -2 6 C-1.34 4.02 -0.68 2.04 0 0 Z " fill="#E6F7FA" transform="translate(160,460)"/>
<path d="M0 0 C1.93166016 0.01740234 1.93166016 0.01740234 3.90234375 0.03515625 C5.19269531 0.04417969 6.48304688 0.05320312 7.8125 0.0625 C8.81152344 0.07410156 9.81054688 0.08570313 10.83984375 0.09765625 C10.83984375 4.05765625 10.83984375 8.01765625 10.83984375 12.09765625 C9.84984375 12.09765625 8.85984375 12.09765625 7.83984375 12.09765625 C7.83984375 13.41765625 7.83984375 14.73765625 7.83984375 16.09765625 C-1.07015625 16.09765625 -9.98015625 16.09765625 -19.16015625 16.09765625 C-19.16015625 15.76765625 -19.16015625 15.43765625 -19.16015625 15.09765625 C-14.21015625 15.09765625 -9.26015625 15.09765625 -4.16015625 15.09765625 C-4.16015625 14.43765625 -4.16015625 13.77765625 -4.16015625 13.09765625 C-5.48015625 13.09765625 -6.80015625 13.09765625 -8.16015625 13.09765625 C-8.16015625 12.10765625 -8.16015625 11.11765625 -8.16015625 10.09765625 C-9.15015625 10.09765625 -10.14015625 10.09765625 -11.16015625 10.09765625 C-10.83015625 9.43765625 -10.50015625 8.77765625 -10.16015625 8.09765625 C-9.17015625 8.42765625 -8.18015625 8.75765625 -7.16015625 9.09765625 C-7.16015625 10.08765625 -7.16015625 11.07765625 -7.16015625 12.09765625 C-6.17015625 12.09765625 -5.18015625 12.09765625 -4.16015625 12.09765625 C-4.17175781 11.31519531 -4.18335938 10.53273438 -4.1953125 9.7265625 C-4.20433594 8.71464844 -4.21335938 7.70273437 -4.22265625 6.66015625 C-4.23425781 5.65082031 -4.24585938 4.64148438 -4.2578125 3.6015625 C-4.11172173 -0.14420474 -3.82636297 0.1182436 0 0 Z " fill="#E6F7FB" transform="translate(171.16015625,496.90234375)"/>
<path d="M0 0 C0.33 0.66 0.66 1.32 1 2 C3.64 1.67 6.28 1.34 9 1 C10 4 10 4 9 7 C10.32 7 11.64 7 13 7 C13 13.27 13 19.54 13 26 C13.66 26.33 14.32 26.66 15 27 C14.67 27.33 14.34 27.66 14 28 C15.98 28.33 17.96 28.66 20 29 C20 29.33 20 29.66 20 30 C17.22890693 30.05392397 14.45886182 30.09363455 11.6875 30.125 C10.90181641 30.14175781 10.11613281 30.15851563 9.30664062 30.17578125 C8.54931641 30.18222656 7.79199219 30.18867188 7.01171875 30.1953125 C6.31522217 30.20578613 5.61872559 30.21625977 4.90112305 30.22705078 C3 30 3 30 0 28 C0 27.34 0 26.68 0 26 C1.65 25.34 3.3 24.68 5 24 C4.67 17.73 4.34 11.46 4 5 C2.68 4.34 1.36 3.68 0 3 C0 2.01 0 1.02 0 0 Z " fill="#31B0FC" transform="translate(666,476)"/>
<path d="M0 0 C0 1.65 0 3.3 0 5 C-0.99 5.495 -0.99 5.495 -2 6 C-2.72159424 7.64363134 -3.39351421 9.31050386 -4 11 C-3.071875 10.773125 -2.14375 10.54625 -1.1875 10.3125 C2 10 2 10 3.875 11.4375 C4.431875 12.2109375 4.431875 12.2109375 5 13 C4.67 13.99 4.34 14.98 4 16 C4.99 16 5.98 16 7 16 C7 16.99 7 17.98 7 19 C6.01 19 5.02 19 4 19 C4 18.34 4 17.68 4 17 C3.175 17.495 2.35 17.99 1.5 18.5 C-2.90158735 20.38639458 -5.24756711 20.536565 -10 20 C-13.32199976 17.87051297 -13.89590149 16.3367893 -15.0625 12.5625 C-15 9 -15 9 -13.0625 6.3125 C-4.7027027 0 -4.7027027 0 0 0 Z " fill="#34B4FB" transform="translate(548,486)"/>
<path d="M0 0 C1.37478516 0.01740234 1.37478516 0.01740234 2.77734375 0.03515625 C3.69644531 0.04417969 4.61554688 0.05320312 5.5625 0.0625 C6.27277344 0.07410156 6.98304688 0.08570313 7.71484375 0.09765625 C7.71484375 0.42765625 7.71484375 0.75765625 7.71484375 1.09765625 C4.74484375 1.09765625 1.77484375 1.09765625 -1.28515625 1.09765625 C-1.28515625 13.63765625 -1.28515625 26.17765625 -1.28515625 39.09765625 C3.00484375 39.09765625 7.29484375 39.09765625 11.71484375 39.09765625 C11.71484375 28.86765625 11.71484375 18.63765625 11.71484375 8.09765625 C10.39484375 7.76765625 9.07484375 7.43765625 7.71484375 7.09765625 C8.70484375 7.09765625 9.69484375 7.09765625 10.71484375 7.09765625 C10.71484375 6.10765625 10.71484375 5.11765625 10.71484375 4.09765625 C11.70484375 3.76765625 12.69484375 3.43765625 13.71484375 3.09765625 C14.04484375 2.10765625 14.37484375 1.11765625 14.71484375 0.09765625 C19.99484375 0.09765625 25.27484375 0.09765625 30.71484375 0.09765625 C30.71484375 0.42765625 30.71484375 0.75765625 30.71484375 1.09765625 C25.76484375 1.09765625 20.81484375 1.09765625 15.71484375 1.09765625 C15.71484375 1.75765625 15.71484375 2.41765625 15.71484375 3.09765625 C17.36484375 3.09765625 19.01484375 3.09765625 20.71484375 3.09765625 C20.71484375 14.97765625 20.71484375 26.85765625 20.71484375 39.09765625 C25.33484375 39.09765625 29.95484375 39.09765625 34.71484375 39.09765625 C34.71484375 39.42765625 34.71484375 39.75765625 34.71484375 40.09765625 C29.76484375 40.09765625 24.81484375 40.09765625 19.71484375 40.09765625 C19.71484375 28.21765625 19.71484375 16.33765625 19.71484375 4.09765625 C18.39484375 4.09765625 17.07484375 4.09765625 15.71484375 4.09765625 C15.71484375 5.08765625 15.71484375 6.07765625 15.71484375 7.09765625 C14.72484375 7.09765625 13.73484375 7.09765625 12.71484375 7.09765625 C12.71484375 17.98765625 12.71484375 28.87765625 12.71484375 40.09765625 C7.76484375 40.09765625 2.81484375 40.09765625 -2.28515625 40.09765625 C-4.12792134 38.25489116 -3.41390036 35.66801866 -3.42410278 33.21630859 C-3.42207855 32.39340332 -3.42005432 31.57049805 -3.41796875 30.72265625 C-3.41892548 29.88299316 -3.4198822 29.04333008 -3.42086792 28.17822266 C-3.42154973 26.3994133 -3.41969542 24.62060148 -3.41552734 22.84179688 C-3.41017908 20.10931849 -3.4154723 17.37700449 -3.421875 14.64453125 C-3.42121422 12.92057255 -3.41993306 11.19661396 -3.41796875 9.47265625 C-3.41999298 8.64975098 -3.42201721 7.8268457 -3.42410278 6.97900391 C-3.39566458 0.14511387 -3.39566458 0.14511387 0 0 Z " fill="#BCE6F4" transform="translate(237.28515625,472.90234375)"/>
<path d="M0 0 C0.99 0 1.98 0 3 0 C3 9.24 3 18.48 3 28 C1.68 28.33 0.36 28.66 -1 29 C-1 29.99 -1 30.98 -1 32 C-1.99 32 -2.98 32 -4 32 C-4 22.43 -4 12.86 -4 3 C-2.68 3 -1.36 3 0 3 C0 2.01 0 1.02 0 0 Z " fill="#4DB8F5" transform="translate(209,477)"/>
<path d="M0 0 C1.80864334 0.36511135 1.80864334 0.36511135 4 1 C6.01876154 1.100408 8.04048558 1.14614624 10.06170654 1.15821838 C11.30408585 1.1680072 12.54646515 1.17779602 13.82649231 1.18788147 C15.20040855 1.19378524 16.5743252 1.19959571 17.94824219 1.20532227 C19.39709246 1.21490395 20.84593996 1.2249142 22.29478455 1.23532104 C26.22622269 1.26234473 30.15767281 1.28336802 34.08915234 1.30332303 C38.1984748 1.32519823 42.30776046 1.35257942 46.41705322 1.37937927 C54.19778789 1.42928541 61.978543 1.47423196 69.75931764 1.51740164 C78.61779092 1.56679177 87.47622727 1.62170332 96.33466482 1.67708123 C114.55640892 1.79086936 132.77818788 1.89771531 151 2 C151 2.33 151 2.66 151 3 C101.17 3 51.34 3 0 3 C0 3.66 0 4.32 0 5 C-0.66 5 -1.32 5 -2 5 C-2 5.66 -2 6.32 -2 7 C-2.99 7 -3.98 7 -5 7 C-5.33 7.66 -5.66 8.32 -6 9 C-5.67 7.35 -5.34 5.7 -5 4 C-4.34 4 -3.68 4 -3 4 C-3 3.34 -3 2.68 -3 2 C-2.01 1.34 -1.02 0.68 0 0 Z " fill="#4EAFE4" transform="translate(144,402)"/>
<path d="M0 0 C0.33 0.99 0.66 1.98 1 3 C1.66 3 2.32 3 3 3 C3 7.62 3 12.24 3 17 C2.01 16.67 1.02 16.34 0 16 C0.185625 16.598125 0.37125 17.19625 0.5625 17.8125 C1 20 1 20 0 23 C-1.98 23 -3.96 23 -6 23 C-6 22.01 -6 21.02 -6 20 C-5.34 20 -4.68 20 -4 20 C-4 19.34 -4 18.68 -4 18 C-5.32 17.34 -6.64 16.68 -8 16 C-8 11.05 -8 6.1 -8 1 C-7.34 1 -6.68 1 -6 1 C-5.34 2.98 -4.68 4.96 -4 7 C-2.68 7 -1.36 7 0 7 C0 4.69 0 2.38 0 0 Z " fill="#48BBF8" transform="translate(403,482)"/>
<path d="M0 0 C1.65 0.33 3.3 0.66 5 1 C5 1.66 5 2.32 5 3 C10.39252113 4.16309279 12.42094955 3.89203186 17 1 C19.8125 1.3125 19.8125 1.3125 22 2 C21.66032174 5.17033042 21.00130809 5.99882607 18.5625 8.1875 C13.54514087 11.73636378 9.02803366 11.50869482 3 11 C-0.6875 9.5 -0.6875 9.5 -3 8 C-2.34 7.01 -1.68 6.02 -1 5 C0.98 5.66 2.96 6.32 5 7 C5 6.34 5 5.68 5 5 C4.34 5 3.68 5 3 5 C3 4.34 3 3.68 3 3 C2.01 3 1.02 3 0 3 C0 2.01 0 1.02 0 0 Z " fill="#31A9F4" transform="translate(643,495)"/>
<path d="M0 0 C0.33 0 0.66 0 1 0 C1 7.59 1 15.18 1 23 C1.66 23 2.32 23 3 23 C3 23.99 3 24.98 3 26 C2.34 26 1.68 26 1 26 C1 27.32 1 28.64 1 30 C3.31 30 5.62 30 8 30 C8 31.32 8 32.64 8 34 C8.99 34 9.98 34 11 34 C11 33.34 11 32.68 11 32 C12.65 32.66 14.3 33.32 16 34 C15.34 35.32 14.68 36.64 14 38 C8.39 38 2.78 38 -3 38 C-3.33 36.68 -3.66 35.36 -4 34 C-2.68 33.34 -1.36 32.68 0 32 C0 21.44 0 10.88 0 0 Z " fill="#2FB3FA" transform="translate(568,468)"/>
<path d="M0 0 C0.74958984 0.05220703 1.49917969 0.10441406 2.27148438 0.15820312 C4.11887082 0.28763784 5.96574371 0.42436518 7.8125 0.5625 C7.8125 1.8825 7.8125 3.2025 7.8125 4.5625 C6.8225 4.5625 5.8325 4.5625 4.8125 4.5625 C5.1425 6.8725 5.4725 9.1825 5.8125 11.5625 C4.1625 11.5625 2.5125 11.5625 0.8125 11.5625 C0.8125 10.9025 0.8125 10.2425 0.8125 9.5625 C0.1525 9.5625 -0.5075 9.5625 -1.1875 9.5625 C-1.5175 11.8725 -1.8475 14.1825 -2.1875 16.5625 C-4.0372147 13.78792794 -4.49152134 12.61707736 -5.0625 9.5 C-5.70679849 6.2516033 -5.70679849 6.2516033 -8.25 4.25 C-8.889375 4.023125 -9.52875 3.79625 -10.1875 3.5625 C-10.5175 2.5725 -10.8475 1.5825 -11.1875 0.5625 C-7.35939179 -0.71353607 -3.95274893 -0.30033987 0 0 Z " fill="#39B6F9" transform="translate(703.1875,473.4375)"/>
<path d="M0 0 C0.556875 0.226875 1.11375 0.45375 1.6875 0.6875 C1.14462148 4.48764965 -0.42714643 6.22646313 -3.3125 8.6875 C-8.83832995 10.52944332 -14.40181709 10.43812543 -19.8125 8.3125 C-22.3125 6.6875 -22.3125 6.6875 -24.3125 4.6875 C-24.3125 3.6975 -24.3125 2.7075 -24.3125 1.6875 C-23.6525 1.6875 -22.9925 1.6875 -22.3125 1.6875 C-22.3125 2.3475 -22.3125 3.0075 -22.3125 3.6875 C-21.6525 3.6875 -20.9925 3.6875 -20.3125 3.6875 C-20.3125 4.3475 -20.3125 5.0075 -20.3125 5.6875 C-18.3325 5.6875 -16.3525 5.6875 -14.3125 5.6875 C-14.3125 5.0275 -14.3125 4.3675 -14.3125 3.6875 C-14.9725 3.6875 -15.6325 3.6875 -16.3125 3.6875 C-16.3125 2.6975 -16.3125 1.7075 -16.3125 0.6875 C-15.42498047 0.95626953 -15.42498047 0.95626953 -14.51953125 1.23046875 C-9.41051989 2.75293438 -9.41051989 2.75293438 -4.5 1.25 C-2.3125 -0.3125 -2.3125 -0.3125 0 0 Z " fill="#39B7F2" transform="translate(807.3125,496.3125)"/>
<path d="M0 0 C5.28 0 10.56 0 16 0 C16 0.99 16 1.98 16 3 C12.7 3 9.4 3 6 3 C6 14.88 6 26.76 6 39 C10.62 39 15.24 39 20 39 C20 39.33 20 39.66 20 40 C14.72 40 9.44 40 4 40 C4 28.12 4 16.24 4 4 C3.01 4 2.02 4 1 4 C1 4.99 1 5.98 1 7 C0.01 6.67 -0.98 6.34 -2 6 C-1.34 6 -0.68 6 0 6 C-0.33 5.01 -0.66 4.02 -1 3 C-0.67 2.01 -0.34 1.02 0 0 Z " fill="#BCE5F6" transform="translate(274,473)"/>
<path d="M0 0 C0.33 8.25 0.66 16.5 1 25 C-0.32 25.33 -1.64 25.66 -3 26 C-3.33 17.75 -3.66 9.5 -4 1 C-4.33 1.66 -4.66 2.32 -5 3 C-6.32 3 -7.64 3 -9 3 C-9 3.99 -9 4.98 -9 6 C-10.65 6 -12.3 6 -14 6 C-14 4.33333333 -14 2.66666667 -14 1 C-12.60750796 0.63291604 -11.21076667 0.28193437 -9.8125 -0.0625 C-8.64654297 -0.35833984 -8.64654297 -0.35833984 -7.45703125 -0.66015625 C-5 -1 -5 -1 0 0 Z " fill="#47B5EE" transform="translate(528,474)"/>
<path d="M0 0 C7.59 0 15.18 0 23 0 C23.66 1.32 24.32 2.64 25 4 C24.01 3.67 23.02 3.34 22 3 C19.94106379 2.77674186 17.87766347 2.59294241 15.8125 2.4375 C14.18248047 2.31181641 14.18248047 2.31181641 12.51953125 2.18359375 C11.68808594 2.12300781 10.85664063 2.06242187 10 2 C10 2.66 10 3.32 10 4 C10.66 4 11.32 4 12 4 C12 4.99 12 5.98 12 7 C10.68 7 9.36 7 8 7 C8 16.57 8 26.14 8 36 C7.67 36 7.34 36 7 36 C7 26.76 7 17.52 7 8 C6.01 8 5.02 8 4 8 C3.67 7.01 3.34 6.02 3 5 C3.66 4.34 4.32 3.68 5 3 C3.02 3 1.04 3 -1 3 C-0.67 2.01 -0.34 1.02 0 0 Z " fill="#DDF4FA" transform="translate(197,473)"/>
<path d="M0 0 C0.66 0 1.32 0 2 0 C3.26237731 2.52475462 3.09856404 4.31200466 3.0625 7.125 C3.05347656 8.03507812 3.04445313 8.94515625 3.03515625 9.8828125 C3.02355469 10.58148438 3.01195312 11.28015625 3 12 C1.68 12.33 0.36 12.66 -1 13 C-4 8.25 -4 8.25 -4 6 C-10.93 5.505 -10.93 5.505 -18 5 C-18.33 4.01 -18.66 3.02 -19 2 C-16.20865148 1.80574127 -13.41716313 1.61930483 -10.625 1.4375 C-9.8309375 1.38142578 -9.036875 1.32535156 -8.21875 1.26757812 C-2.2265625 0.88671875 -2.2265625 0.88671875 0 2 C0 1.34 0 0.68 0 0 Z " fill="#38A7E8" transform="translate(348,462)"/>
<path d="M0 0 C0.33 0.99 0.66 1.98 1 3 C6.27983997 2.65456612 6.27983997 2.65456612 11.0625 0.75 C13 0 13 0 16.75 1.375 C17.8225 1.91125 18.895 2.4475 20 3 C20 3.99 20 4.98 20 6 C17.54724859 7.2263757 15.9494219 7.11415314 13.2109375 7.09765625 C12.26992188 7.09443359 11.32890625 7.09121094 10.359375 7.08789062 C9.37453125 7.07951172 8.3896875 7.07113281 7.375 7.0625 C6.38242187 7.05798828 5.38984375 7.05347656 4.3671875 7.04882812 C1.9113984 7.03702145 -0.54427104 7.020554 -3 7 C-3.66 5.68 -4.32 4.36 -5 3 C-3.35 2.01 -1.7 1.02 0 0 Z " fill="#21B6F8" transform="translate(318,499)"/>
<path d="M0 0 C1.32 0 2.64 0 4 0 C4 11.55 4 23.1 4 35 C3.34 35 2.68 35 2 35 C2 24.77 2 14.54 2 4 C0.68 4 -0.64 4 -2 4 C-2 14.56 -2 25.12 -2 36 C-2.33 36 -2.66 36 -3 36 C-3 25.11 -3 14.22 -3 3 C-2.01 3 -1.02 3 0 3 C0 2.01 0 1.02 0 0 Z " fill="#6EBFE7" transform="translate(253,477)"/>
<path d="M0 0 C0.33 0.99 0.66 1.98 1 3 C-4.3291489 7.61859572 -7.56623448 9.28102134 -14.703125 9.234375 C-17.90650837 8.90749915 -20.28351508 7.67168303 -23 6 C-23 5.34 -23 4.68 -23 4 C-22.01 3.67 -21.02 3.34 -20 3 C-20 3.66 -20 4.32 -20 5 C-18.35 5 -16.7 5 -15 5 C-14.67 4.34 -14.34 3.68 -14 3 C-11.69 3.33 -9.38 3.66 -7 4 C-7 3.01 -7 2.02 -7 1 C-3.375 -1.125 -3.375 -1.125 0 0 Z " fill="#2BB9F7" transform="translate(511,497)"/>
<path d="M0 0 C-0.66 0.4125 -1.32 0.825 -2 1.25 C-2.66 1.8275 -3.32 2.405 -4 3 C-4 4.32 -4 5.64 -4 7 C-4.5625 9.1875 -4.5625 9.1875 -6 11 C-9.5 11.875 -9.5 11.875 -13 12 C-15 10 -15 10 -15.0625 6.5625 C-14 3 -14 3 -10.875 1.0625 C-7.23832799 -0.17231203 -3.8306036 -0.23452675 0 0 Z " fill="#33AFF2" transform="translate(549,473)"/>
<path d="M0 0 C1.9375 2.1875 1.9375 2.1875 3 5 C2.10394232 8.85304802 1.34846101 9.76769266 -2 12 C-4.41142001 11.77392937 -5.79073292 11.13710602 -7.8125 9.8125 C-9 8 -9 8 -8.875 4.9375 C-7.47889802 0.2505862 -4.59478402 -0.8040872 0 0 Z " fill="#2FB6F1" transform="translate(526,457)"/>
<path d="M0 0 C-0.10954408 3.62564187 -0.2402496 7.25021431 -0.375 10.875 C-0.42140625 12.42380859 -0.42140625 12.42380859 -0.46875 14.00390625 C-0.52675781 15.48310547 -0.52675781 15.48310547 -0.5859375 16.9921875 C-0.6173584 17.90339355 -0.6487793 18.81459961 -0.68115234 19.75341797 C-1 22 -1 22 -3 24 C-3 17.07 -3 10.14 -3 3 C-5.31 3 -7.62 3 -10 3 C-9.67 3.99 -9.34 4.98 -9 6 C-11.31 5.67 -13.62 5.34 -16 5 C-15.26953125 3.08203125 -15.26953125 3.08203125 -14 1 C-12.01171875 0.13671875 -12.01171875 0.13671875 -9.6875 -0.3125 C-8.92824219 -0.47363281 -8.16898437 -0.63476562 -7.38671875 -0.80078125 C-4.72766812 -1.02273147 -2.59488077 -0.56565113 0 0 Z " fill="#3DB3F5" transform="translate(366,474)"/>
<path d="M0 0 C2.5625 0.375 2.5625 0.375 4.4375 2 C5.96031243 5.21482625 5.58566469 7.01317316 4.5625 10.375 C1.5625 12.375 1.5625 12.375 -1 12.1875 C-3.4375 11.375 -3.4375 11.375 -5.4375 8.375 C-4.81428855 0.74065978 -4.81428855 0.74065978 0 0 Z " fill="#3CB1ED" transform="translate(360.4375,456.625)"/>
<path d="M0 0 C0.99 0.33 1.98 0.66 3 1 C3.33 15.52 3.66 30.04 4 45 C3.01 45 2.02 45 1 45 C1 31.14 1 17.28 1 3 C0.01 3 -0.98 3 -2 3 C-2 2.34 -2 1.68 -2 1 C-1.34 0.67 -0.68 0.34 0 0 Z " fill="#3AB3F2" transform="translate(575,457)"/>
<path d="M0 0 C4.75 0.75 4.75 0.75 7 3 C8.32 3 9.64 3 11 3 C10.34 3.66 9.68 4.32 9 5 C8.30899447 6.99172182 7.64097297 8.99161804 7 11 C6 12 6 12 3.625 12.3125 C1 12 1 12 -0.8125 10.125 C-2 8 -2 8 -2 6 C-2.66 5.67 -3.32 5.34 -4 5 C-3.34 5 -2.68 5 -2 5 C-2 4.34 -2 3.68 -2 3 C-1.01 3 -0.02 3 1 3 C0.67 2.01 0.34 1.02 0 0 Z " fill="#34B0F4" transform="translate(504,474)"/>
<path d="M0 0 C1.875 2.1875 1.875 2.1875 3 5 C2.6875 7.8125 2.6875 7.8125 2 10 C0.02 10.66 -1.96 11.32 -4 12 C-7.87533393 8.730187 -7.87533393 8.730187 -8.4375 5.4375 C-8 3 -8 3 -6.8125 1.1875 C-4.30260677 -0.45691281 -2.93767401 -0.5875348 0 0 Z " fill="#35B8F5" transform="translate(741,457)"/>
<path d="M0 0 C0.99 0 1.98 0 3 0 C3 12.21 3 24.42 3 37 C3.66 37.33 4.32 37.66 5 38 C5.33 35.69 5.66 33.38 6 31 C6.33 31 6.66 31 7 31 C7 34.63 7 38.26 7 42 C6.01 42 5.02 42 4 42 C4 41.01 4 40.02 4 39 C2.68 38.67 1.36 38.34 0 38 C0 25.46 0 12.92 0 0 Z " fill="#68C7F8" transform="translate(160,467)"/>
<path d="M0 0 C2.3125 3 2.3125 3 4 6 C2.68 7.65 1.36 9.3 0 11 C-1.9375 10.6875 -1.9375 10.6875 -4 10 C-4.33 9.01 -4.66 8.02 -5 7 C-5.66 6.835 -6.32 6.67 -7 6.5 C-7.66 6.335 -8.32 6.17 -9 6 C-9.33 5.01 -9.66 4.02 -10 3 C-6.60081327 0.6691291 -4.15314532 -0.95841815 0 0 Z " fill="#3AA9F2" transform="translate(691,473)"/>
<path d="M0 0 C1.32 0.33 2.64 0.66 4 1 C4 6.94 4 12.88 4 19 C2.68 19.33 1.36 19.66 0 20 C-0.66 17.69 -1.32 15.38 -2 13 C-1.01 12.67 -0.02 12.34 1 12 C1 11.34 1 10.68 1 10 C0.34 10 -0.32 10 -1 10 C-1 9.34 -1 8.68 -1 8 C0.32 8 1.64 8 3 8 C3 7.34 3 6.68 3 6 C1.35 6 -0.3 6 -2 6 C-1.34 4.02 -0.68 2.04 0 0 Z " fill="#2CB1FB" transform="translate(339,473)"/>
<path d="M0 0 C0.99 0.33 1.98 0.66 3 1 C3.33 4.96 3.66 8.92 4 13 C2.35 13.33 0.7 13.66 -1 14 C-5 7.6969697 -5 7.6969697 -5 4.75 C-3.67034314 2.42310049 -2.33397397 1.30427957 0 0 Z " fill="#3BB0ED" transform="translate(626,461)"/>
<path d="M0 0 C0 0.66 0 1.32 0 2 C-0.99 2.66 -1.98 3.32 -3 4 C-3.38394667 6.77262255 -3.60342248 9.34323528 -3.6875 12.125 C-3.72166016 12.87910156 -3.75582031 13.63320313 -3.79101562 14.41015625 C-3.87354278 16.27291201 -3.93844711 18.13643326 -4 20 C-4.33 20 -4.66 20 -5 20 C-5.12375 18.865625 -5.2475 17.73125 -5.375 16.5625 C-5.58125 15.386875 -5.7875 14.21125 -6 13 C-6.66 12.67 -7.32 12.34 -8 12 C-7.67 13.32 -7.34 14.64 -7 16 C-7.99 16 -8.98 16 -10 16 C-10 15.34 -10 14.68 -10 14 C-10.66 13.67 -11.32 13.34 -12 13 C-11.01 13 -10.02 13 -9 13 C-9 12.34 -9 11.68 -9 11 C-8.34 10.67 -7.68 10.34 -7 10 C-6.957279 8.33388095 -6.95936168 6.66617115 -7 5 C-7.33 4.67 -7.66 4.34 -8 4 C-8.04063832 2.33382885 -8.042721 0.66611905 -8 -1 C-4.37673261 -2.2077558 -3.35853631 -1.54311128 0 0 Z " fill="#42B0EE" transform="translate(434,475)"/>
<path d="M0 0 C0.33 0 0.66 0 1 0 C1 6.27 1 12.54 1 19 C0.34 19 -0.32 19 -1 19 C-1.33 19.66 -1.66 20.32 -2 21 C-4.5625 21.625 -4.5625 21.625 -7 22 C-8.0625 19.625 -8.0625 19.625 -9 17 C-8.67 16.34 -8.34 15.68 -8 15 C-6.68 15 -5.36 15 -4 15 C-3.67 12.69 -3.34 10.38 -3 8 C-2.67 8 -2.34 8 -2 8 C-1.67 10.31 -1.34 12.62 -1 15 C-0.67 10.05 -0.34 5.1 0 0 Z " fill="#62C7FB" transform="translate(365,481)"/>
<path d="M0 0 C0 8.91 0 17.82 0 27 C-0.66 27 -1.32 27 -2 27 C-2 19.41 -2 11.82 -2 4 C-4.31 4 -6.62 4 -9 4 C-8.67 3.01 -8.34 2.02 -8 1 C-5.23735711 0.40267181 -2.83967231 0 0 0 Z " fill="#4AB1E7" transform="translate(742,473)"/>
<path d="M0 0 C2.31 0.66 4.62 1.32 7 2 C7 1.34 7 0.68 7 0 C9.475 0.99 9.475 0.99 12 2 C11.34 3.32 10.68 4.64 10 6 C4.39 6 -1.22 6 -7 6 C-7 5.67 -7 5.34 -7 5 C-5.35 5 -3.7 5 -2 5 C-1.855625 4.360625 -1.71125 3.72125 -1.5625 3.0625 C-1 1 -1 1 0 0 Z " fill="#25ACFE" transform="translate(572,500)"/>
<path d="M0 0 C0.144375 0.61875 0.28875 1.2375 0.4375 1.875 C0.93152225 4.03258322 0.93152225 4.03258322 2 6 C1.34 6 0.68 6 0 6 C0 6.66 0 7.32 0 8 C4.05606165 7.53199289 7.46588679 7.12046792 11 5 C11 4.01 11 3.02 11 2 C11.99 2.66 12.98 3.32 14 4 C13.67 5.65 13.34 7.3 13 9 C10.37493198 9.02690844 7.75013827 9.04679404 5.125 9.0625 C4.37863281 9.07087891 3.63226563 9.07925781 2.86328125 9.08789062 C-2.7734375 9.11328125 -2.7734375 9.11328125 -5 8 C-4.67 6.68 -4.34 5.36 -4 4 C-2.68 3.67 -1.36 3.34 0 3 C0 2.01 0 1.02 0 0 Z M3 3 C3.33 3.66 3.66 4.32 4 5 C3.34 4.67 2.68 4.34 2 4 C2.33 3.67 2.66 3.34 3 3 Z " fill="#18ADFC" transform="translate(447,497)"/>
<path d="M0 0 C1.67542976 0.28604898 3.34385343 0.61781233 5 1 C4.66410006 4.13506611 3.97334828 5.025249 1.625 7.25 C-1 9 -1 9 -4 9 C-4 8.01 -4 7.02 -4 6 C-5.98 6 -7.96 6 -10 6 C-7.35603236 3.35603236 -4.42496181 2.43225676 -1 1 C-0.67 0.67 -0.34 0.34 0 0 Z " fill="#3AA5E2" transform="translate(660,496)"/>
<path d="M0 0 C0.515625 0.37125 1.03125 0.7425 1.5625 1.125 C1.2325 2.445 0.9025 3.765 0.5625 5.125 C1.5525 5.125 2.5425 5.125 3.5625 5.125 C3.5625 6.115 3.5625 7.105 3.5625 8.125 C2.5725 8.125 1.5825 8.125 0.5625 8.125 C0.5625 7.465 0.5625 6.805 0.5625 6.125 C-0.30375 6.62 -0.30375 6.62 -1.1875 7.125 C-3.4375 8.125 -3.4375 8.125 -7.4375 8.125 C-7.1075 6.475 -6.7775 4.825 -6.4375 3.125 C-7.4275 3.125 -8.4175 3.125 -9.4375 3.125 C-9.4375 2.465 -9.4375 1.805 -9.4375 1.125 C-3.0375 -1.09038462 -3.0375 -1.09038462 0 0 Z " fill="#3FB3ED" transform="translate(551.4375,496.875)"/>
<path d="M0 0 C0.33 0 0.66 0 1 0 C1 4.95 1 9.9 1 15 C2.93875 14.484375 4.8775 13.96875 6.875 13.4375 C12.75 11.875 12.75 11.875 15 13 C15 13.66 15 14.32 15 15 C13.68 15 12.36 15 11 15 C11 15.66 11 16.32 11 17 C11.66 17 12.32 17 13 17 C13 17.66 13 18.32 13 19 C11.02 19.99 11.02 19.99 9 21 C9.33 19.68 9.66 18.36 10 17 C8.72125 17.185625 7.4425 17.37125 6.125 17.5625 C2.25 18.125 2.25 18.125 0 17 C0 11.39 0 5.78 0 0 Z " fill="#48B3EF" transform="translate(327,466)"/>
<path d="M0 0 C2.12472576 -0.05386629 4.24983652 -0.09273071 6.375 -0.125 C7.55835938 -0.14820313 8.74171875 -0.17140625 9.9609375 -0.1953125 C13 0 13 0 15 2 C14.625 4.125 14.625 4.125 14 6 C12.02 6 10.04 6 8 6 C8 5.01 8 4.02 8 3 C6.68 3 5.36 3 4 3 C4 3.66 4 4.32 4 5 C2.68 4.67 1.36 4.34 0 4 C0 2.68 0 1.36 0 0 Z " fill="#4DB4ED" transform="translate(715,474)"/>
<path d="M0 0 C2 3 2 3 3 5 C4.65 5 6.3 5 8 5 C8.33 4.01 8.66 3.02 9 2 C10.32 2.66 11.64 3.32 13 4 C12.01 4.33 11.02 4.66 10 5 C9.67 5.99 9.34 6.98 9 8 C3.06 8.495 3.06 8.495 -3 9 C-4 5 -4 5 -3 3 C-2.01 3 -1.02 3 0 3 C0 2.01 0 1.02 0 0 Z " fill="#34AAF3" transform="translate(355,497)"/>
<path d="M0 0 C1.32 0.33 2.64 0.66 4 1 C3.34 1 2.68 1 2 1 C2.33 10.24 2.66 19.48 3 29 C2.01 29 1.02 29 0 29 C0 19.43 0 9.86 0 0 Z " fill="#5DBDEF" transform="translate(205,480)"/>
<path d="M0 0 C1.65 0 3.3 0 5 0 C6.55136786 2.46393719 7.03039129 3.68089146 6.75 6.625 C6 9 6 9 4 11 C3.01 11 2.02 11 1 11 C0.4254048 7.26513121 0 3.78706732 0 0 Z " fill="#3BAFF5" transform="translate(812,493)"/>
<path d="M0 0 C1.65 0 3.3 0 5 0 C5 0.66 5 1.32 5 2 C4.67 2.33 4.34 2.66 4 3 C4.33 3.99 4.66 4.98 5 6 C3.68 6.33 2.36 6.66 1 7 C1 7.66 1 8.32 1 9 C-0.98 9 -2.96 9 -5 9 C-5.33 8.01 -5.66 7.02 -6 6 C-5.195625 5.566875 -4.39125 5.13375 -3.5625 4.6875 C-0.72153646 3.19525998 -0.72153646 3.19525998 0 0 Z " fill="#39B6F9" transform="translate(672,496)"/>
<path d="M0 0 C2.625 1.4375 2.625 1.4375 5 3 C4.67 4.32 4.34 5.64 4 7 C-1.61 7 -7.22 7 -13 7 C-13 6.67 -13 6.34 -13 6 C-11.865625 5.87625 -10.73125 5.7525 -9.5625 5.625 C-7.7990625 5.315625 -7.7990625 5.315625 -6 5 C-5.67 4.34 -5.34 3.68 -5 3 C-4.01 3 -3.02 3 -2 3 C-2 2.34 -2 1.68 -2 1 C-1.34 0.67 -0.68 0.34 0 0 Z " fill="#1FABFC" transform="translate(528,499)"/>
<path d="M0 0 C-0.5613318 3.25572446 -1.31079616 5.01848138 -4 7 C-6.48046875 6.85546875 -6.48046875 6.85546875 -9.1875 6.1875 C-10.08855469 5.97480469 -10.98960937 5.76210938 -11.91796875 5.54296875 C-12.60503906 5.36378906 -13.29210937 5.18460937 -14 5 C-12.06846285 3.06846285 -10.52274579 2.06566148 -8.125 0.8125 C-7.44695313 0.44769531 -6.76890625 0.08289063 -6.0703125 -0.29296875 C-3.62427185 -1.12831471 -2.4023301 -0.84566329 0 0 Z " fill="#3CAAED" transform="translate(809,497)"/>
<path d="M0 0 C0.66 0 1.32 0 2 0 C2 6.93 2 13.86 2 21 C1.34 21 0.68 21 0 21 C-2.15251883 14.5424435 -1.46315409 6.5841934 0 0 Z " fill="#45ACE4" transform="translate(376,479)"/>
<path d="M0 0 C7.59 0 15.18 0 23 0 C23.66 1.32 24.32 2.64 25 4 C24.01 3.67 23.02 3.34 22 3 C20.22686149 2.91790208 18.45079225 2.89253706 16.67578125 2.90234375 C15.64775391 2.90556641 14.61972656 2.90878906 13.56054688 2.91210938 C11.95276367 2.92467773 11.95276367 2.92467773 10.3125 2.9375 C8.68731445 2.94426758 8.68731445 2.94426758 7.02929688 2.95117188 C4.35280915 2.96296257 1.67643223 2.97941937 -1 3 C-0.67 2.01 -0.34 1.02 0 0 Z " fill="#C9EBF4" transform="translate(197,473)"/>
<path d="M0 0 C1.59908203 -0.00386719 1.59908203 -0.00386719 3.23046875 -0.0078125 C5.8125 0.125 5.8125 0.125 6.8125 1.125 C6.88494053 3.14464199 6.89627188 5.16667124 6.875 7.1875 C6.86597656 8.29222656 6.85695312 9.39695312 6.84765625 10.53515625 C6.83605469 11.38980469 6.82445312 12.24445313 6.8125 13.125 C5.8225 13.62 5.8225 13.62 4.8125 14.125 C4.8125 10.165 4.8125 6.205 4.8125 2.125 C-0.1375 2.455 -5.0875 2.785 -10.1875 3.125 C-10.1875 2.465 -10.1875 1.805 -10.1875 1.125 C-6.75263389 0.07707475 -3.58031963 -0.00872185 0 0 Z " fill="#5EBCEB" transform="translate(177.1875,494.875)"/>
<path d="M0 0 C0.66 0 1.32 0 2 0 C2 0.99 2 1.98 2 3 C2.99 3 3.98 3 5 3 C5 2.34 5 1.68 5 1 C5.66 1 6.32 1 7 1 C7.103125 1.639375 7.20625 2.27875 7.3125 2.9375 C7.6528125 3.9584375 7.6528125 3.9584375 8 5 C8.99 5.33 9.98 5.66 11 6 C10 7 10 7 8.05053711 7.11352539 C7.2178833 7.10828857 6.38522949 7.10305176 5.52734375 7.09765625 C4.62822266 7.09443359 3.72910156 7.09121094 2.80273438 7.08789062 C1.85720703 7.07951172 0.91167969 7.07113281 -0.0625 7.0625 C-1.01189453 7.05798828 -1.96128906 7.05347656 -2.93945312 7.04882812 C-5.29303065 7.0370011 -7.64648477 7.02052025 -10 7 C-10 6.67 -10 6.34 -10 6 C-6.37 6 -2.74 6 1 6 C0.67 4.02 0.34 2.04 0 0 Z " fill="#2CB0F8" transform="translate(655,482)"/>
<path d="M0 0 C0.33 0.99 0.66 1.98 1 3 C-0.75 5 -0.75 5 -3 7 C-4.32 7 -5.64 7 -7 7 C-7 6.34 -7 5.68 -7 5 C-9.64 5 -12.28 5 -15 5 C-14.67 4.34 -14.34 3.68 -14 3 C-11.69 3.33 -9.38 3.66 -7 4 C-7 3.01 -7 2.02 -7 1 C-3.375 -1.125 -3.375 -1.125 0 0 Z " fill="#39AFEB" transform="translate(511,497)"/>
<path d="M0 0 C-1.81580309 3.63160618 -6.34926831 4.59301173 -10 6 C-13.0625 6.75 -13.0625 6.75 -15 7 C-14.9375 5.1875 -14.9375 5.1875 -14 3 C-9.14886197 0.2833627 -5.63000273 -0.34469404 0 0 Z " fill="#3EAEF3" transform="translate(502,473)"/>
<path d="M0 0 C0.99 0.33 1.98 0.66 3 1 C2.67 14.2 2.34 27.4 2 41 C1.67 41 1.34 41 1 41 C1 28.46 1 15.92 1 3 C0.01 3 -0.98 3 -2 3 C-2 2.34 -2 1.68 -2 1 C-1.34 0.67 -0.68 0.34 0 0 Z " fill="#50ACDE" transform="translate(575,457)"/>
<path d="M0 0 C2.64 0 5.28 0 8 0 C8 1.32 8 2.64 8 4 C2.25 7 2.25 7 0 7 C0 6.01 0 5.02 0 4 C-0.66 4 -1.32 4 -2 4 C-2 3.34 -2 2.68 -2 2 C-1.34 2 -0.68 2 0 2 C0 1.34 0 0.68 0 0 Z " fill="#48B7F2" transform="translate(648,473)"/>
<path d="M0 0 C-0.66 1.32 -1.32 2.64 -2 4 C-1.34 4.33 -0.68 4.66 0 5 C-1.65 5 -3.3 5 -5 5 C-5 4.01 -5 3.02 -5 2 C-13.58 2 -22.16 2 -31 2 C-31 1.67 -31 1.34 -31 1 C-26.77089482 0.83174865 -22.54170681 0.66567565 -18.3125 0.5 C-17.11431641 0.45230469 -15.91613281 0.40460938 -14.68164062 0.35546875 C-13.52470703 0.31035156 -12.36777344 0.26523437 -11.17578125 0.21875 C-9.58117065 0.1559082 -9.58117065 0.1559082 -7.9543457 0.09179688 C-5.30023521 0.00932885 -2.65511397 -0.01717131 0 0 Z " fill="#58C3FB" transform="translate(183,458)"/>
<path d="M0 0 C0.66 0 1.32 0 2 0 C3.26237731 2.52475462 3.09856404 4.31200466 3.0625 7.125 C3.05347656 8.03507812 3.04445313 8.94515625 3.03515625 9.8828125 C3.02355469 10.58148438 3.01195312 11.28015625 3 12 C1.68 12.33 0.36 12.66 -1 13 C-1.5625 11.0625 -1.5625 11.0625 -2 9 C-1.67 8.67 -1.34 8.34 -1 8 C-0.76924918 6.65252916 -0.58846937 5.29622435 -0.4375 3.9375 C-0.293125 2.638125 -0.14875 1.33875 0 0 Z " fill="#3C9ADE" transform="translate(348,462)"/>
<path d="M0 0 C0.99 0 1.98 0 3 0 C2.85924795 2.93782469 2.7126162 5.87515171 2.5625 8.8125 C2.50352539 10.06256836 2.50352539 10.06256836 2.44335938 11.33789062 C2.40146484 12.14033203 2.35957031 12.94277344 2.31640625 13.76953125 C2.27974854 14.50792236 2.24309082 15.24631348 2.20532227 16.00708008 C2 18 2 18 1 21 C0.01 20.67 -0.98 20.34 -2 20 C-1.34 20 -0.68 20 0 20 C0 13.4 0 6.8 0 0 Z " fill="#4AAEE5" transform="translate(448,481)"/>
<path d="M0 0 C2.3125 -0.3125 2.3125 -0.3125 5 0 C6.875 2.1875 6.875 2.1875 8 5 C7.6875 7.8125 7.6875 7.8125 7 10 C6.01 10.33 5.02 10.66 4 11 C2.56911472 8.13822943 3.40008303 6.06624227 4 3 C2.68 3 1.36 3 0 3 C0 2.01 0 1.02 0 0 Z " fill="#44B3ED" transform="translate(736,457)"/>
<path d="M0 0 C2.45862401 -0.05383848 4.9160755 -0.09359038 7.375 -0.125 C8.42300781 -0.15013672 8.42300781 -0.15013672 9.4921875 -0.17578125 C11.32897486 -0.19344267 13.16601963 -0.10303261 15 0 C15.66 0.66 16.32 1.32 17 2 C16.34 2 15.68 2 15 2 C15 2.66 15 3.32 15 4 C12.03 4 9.06 4 6 4 C6 3.34 6 2.68 6 2 C3.03 1.505 3.03 1.505 0 1 C0 0.67 0 0.34 0 0 Z " fill="#1ECCFC" transform="translate(333,460)"/>
<path d="M0 0 C0.66 0 1.32 0 2 0 C3.28571429 7.42857143 3.28571429 7.42857143 2 11 C0.02 11 -1.96 11 -4 11 C-4 10.01 -4 9.02 -4 8 C-3.34 8 -2.68 8 -2 8 C-2 7.34 -2 6.68 -2 6 C-1.34 6 -0.68 6 0 6 C0 4.02 0 2.04 0 0 Z " fill="#3BB3FA" transform="translate(401,494)"/>
<path d="M0 0 C0 2.64 0 5.28 0 8 C-0.66 8 -1.32 8 -2 8 C-2.33 11.96 -2.66 15.92 -3 20 C-3.33 20 -3.66 20 -4 20 C-4 13.73 -4 7.46 -4 1 C-2 0 -2 0 0 0 Z " fill="#1DA3FD" transform="translate(521,479)"/>
<path d="M0 0 C0.66 0.66 1.32 1.32 2 2 C1.030625 2.268125 0.06125 2.53625 -0.9375 2.8125 C-1.948125 3.204375 -2.95875 3.59625 -4 4 C-4.33 4.99 -4.66 5.98 -5 7 C-6.65 5.35 -8.3 3.7 -10 2 C-6.32653229 -0.44897847 -4.33643601 -0.31537716 0 0 Z " fill="#62C3F1" transform="translate(702,473)"/>
<path d="M0 0 C0.33 0 0.66 0 1 0 C1 4.62 1 9.24 1 14 C2.32 14 3.64 14 5 14 C5.33 14.99 5.66 15.98 6 17 C5.67 17.66 5.34 18.32 5 19 C4.01 19 3.02 19 2 19 C2 18.34 2 17.68 2 17 C0.68 17 -0.64 17 -2 17 C-2 16.34 -2 15.68 -2 15 C-1.34 15 -0.68 15 0 15 C0 10.05 0 5.1 0 0 Z " fill="#49AFF5" transform="translate(559,485)"/>
<path d="M0 0 C1.8871875 0.0309375 1.8871875 0.0309375 3.8125 0.0625 C4.1425 1.3825 4.4725 2.7025 4.8125 4.0625 C3.18759046 4.08948189 1.56255367 4.10888757 -0.0625 4.125 C-1.41988281 4.14240234 -1.41988281 4.14240234 -2.8046875 4.16015625 C-5.1875 4.0625 -5.1875 4.0625 -7.1875 3.0625 C-7.1875 2.4025 -7.1875 1.7425 -7.1875 1.0625 C-4.43671116 0.14557039 -2.82801087 -0.04636083 0 0 Z " fill="#2AB5FC" transform="translate(615.1875,459.9375)"/>
<path d="M0 0 C0.99 0 1.98 0 3 0 C2.67 5.28 2.34 10.56 2 16 C1.34 16 0.68 16 0 16 C0 10.72 0 5.44 0 0 Z " fill="#44AFED" transform="translate(474,482)"/>
<path d="M0 0 C0.66 0 1.32 0 2 0 C2.33 1.32 2.66 2.64 3 4 C2.01 4 1.02 4 0 4 C0 4.66 0 5.32 0 6 C-4.455 6.495 -4.455 6.495 -9 7 C-8.67 6.01 -8.34 5.02 -8 4 C-6.5459375 3.814375 -6.5459375 3.814375 -5.0625 3.625 C-3.5465625 3.315625 -3.5465625 3.315625 -2 3 C-1.67 2.34 -1.34 1.68 -1 1 C-0.67 0.67 -0.34 0.34 0 0 Z " fill="#4CB5EE" transform="translate(502,473)"/>
<path d="M0 0 C1.65 0.33 3.3 0.66 5 1 C5 1.66 5 2.32 5 3 C4.34 3.66 3.68 4.32 3 5 C3 5.66 3 6.32 3 7 C-0.3 6.34 -3.6 5.68 -7 5 C-7 4.34 -7 3.68 -7 3 C-3.535 2.505 -3.535 2.505 0 2 C0 1.34 0 0.68 0 0 Z " fill="#33A2DE" transform="translate(619,461)"/>
<path d="M0 0 C6.52307692 -0.36923077 6.52307692 -0.36923077 8.9375 1.5 C9.288125 1.995 9.63875 2.49 10 3 C6.98509443 4.00496852 4.95818308 4.10335303 1.8125 4.0625 C0.46091797 4.04896484 0.46091797 4.04896484 -0.91796875 4.03515625 C-1.60503906 4.02355469 -2.29210937 4.01195312 -3 4 C-2.34 3.67 -1.68 3.34 -1 3 C-0.67 2.01 -0.34 1.02 0 0 Z " fill="#30B2F8" transform="translate(794,502)"/>
<path d="M0 0 C0.33 0 0.66 0 1 0 C1 4.62 1 9.24 1 14 C0.34 14 -0.32 14 -1 14 C-0.67 15.32 -0.34 16.64 0 18 C-1.65 17.67 -3.3 17.34 -5 17 C-4.67 15.68 -4.34 14.36 -4 13 C-2.68 12.67 -1.36 12.34 0 12 C0 8.04 0 4.08 0 0 Z " fill="#239EF8" transform="translate(733,488)"/>
<path d="M0 0 C0.99 0.33 1.98 0.66 3 1 C2.34 1.66 1.68 2.32 1 3 C0.30899447 4.99172182 -0.35902703 6.99161804 -1 9 C-2 10 -2 10 -4.5625 10.0625 C-5.366875 10.041875 -6.17125 10.02125 -7 10 C-7 9.01 -7 8.02 -7 7 C-6.01 7 -5.02 7 -4 7 C-3.67 6.34 -3.34 5.68 -3 5 C-2.34 5.33 -1.68 5.66 -1 6 C-1.33 4.35 -1.66 2.7 -2 1 C-1.34 0.67 -0.68 0.34 0 0 Z " fill="#36A0E6" transform="translate(512,476)"/>
<path d="M0 0 C0.33 0 0.66 0 1 0 C1 7.59 1 15.18 1 23 C1.66 23 2.32 23 3 23 C3 23.99 3 24.98 3 26 C2.34 26 1.68 26 1 26 C0.67 27.32 0.34 28.64 0 30 C0 20.1 0 10.2 0 0 Z " fill="#25B7FE" transform="translate(568,468)"/>
<path d="M0 0 C-0.33 0.66 -0.66 1.32 -1 2 C1.97 2.495 1.97 2.495 5 3 C5 3.33 5 3.66 5 4 C-0.61 4 -6.22 4 -12 4 C-10.68 3.67 -9.36 3.34 -8 3 C-8 2.34 -8 1.68 -8 1 C-5.07175348 0.02391783 -3.04386724 -0.08226668 0 0 Z " fill="#1BABFD" transform="translate(681,502)"/>
<path d="M0 0 C0 1.65 0 3.3 0 5 C-2 6 -2 6 -5 7 C-7.6875 6.0625 -7.6875 6.0625 -10 5 C-3.63636364 0 -3.63636364 0 0 0 Z " fill="#45B1F2" transform="translate(548,486)"/>
<path d="M0 0 C1.65 0 3.3 0 5 0 C5.66 1.32 6.32 2.64 7 4 C6 5 6 5 2.4375 5.0625 C1.303125 5.041875 0.16875 5.02125 -1 5 C-0.67 3.35 -0.34 1.7 0 0 Z " fill="#3DA5E4" transform="translate(521,457)"/>
<path d="M0 0 C0.99 0 1.98 0 3 0 C2.34 3.3 1.68 6.6 1 10 C1.66 10.33 2.32 10.66 3 11 C2.01 11.33 1.02 11.66 0 12 C-1.95143115 9.13024831 -1.98930952 7.87385237 -1.6875 4.3125 C-1 1 -1 1 0 0 Z " fill="#3CADEA" transform="translate(535,492)"/>
<path d="M0 0 C1.32 0 2.64 0 4 0 C4 1.98 4 3.96 4 6 C1.69 6.33 -0.62 6.66 -3 7 C-3.33 6.01 -3.66 5.02 -4 4 C-3.01 4 -2.02 4 -1 4 C-0.67 2.68 -0.34 1.36 0 0 Z " fill="#3DB7F8" transform="translate(359,460)"/>
<path d="M0 0 C4.455 0.99 4.455 0.99 9 2 C8.67 3.32 8.34 4.64 8 6 C6.68 6 5.36 6 4 6 C1.75 3 1.75 3 0 0 Z " fill="#2FA9EC" transform="translate(824,478)"/>
<path d="M0 0 C0.99 0 1.98 0 3 0 C6 6.625 6 6.625 6 10 C5.01 10 4.02 10 3 10 C2.67 8.02 2.34 6.04 2 4 C1.34 4 0.68 4 0 4 C0 2.68 0 1.36 0 0 Z " fill="#42ACF1" transform="translate(660,477)"/>
<path d="M0 0 C3.96 0 7.92 0 12 0 C12 0.66 12 1.32 12 2 C10.35 2 8.7 2 7 2 C6.67 2.99 6.34 3.98 6 5 C4.35 5 2.7 5 1 5 C0.67 3.35 0.34 1.7 0 0 Z " fill="#4FB6EE" transform="translate(459,475)"/>
<path d="M0 0 C0.8971875 0.309375 0.8971875 0.309375 1.8125 0.625 C1.8125 1.285 1.8125 1.945 1.8125 2.625 C0.4925 2.625 -0.8275 2.625 -2.1875 2.625 C-2.1875 3.285 -2.1875 3.945 -2.1875 4.625 C-2.8475 4.625 -3.5075 4.625 -4.1875 4.625 C-4.1875 5.285 -4.1875 5.945 -4.1875 6.625 C-5.1775 6.625 -6.1675 6.625 -7.1875 6.625 C-7.5175 7.285 -7.8475 7.945 -8.1875 8.625 C-7.8575 6.975 -7.5275 5.325 -7.1875 3.625 C-6.5275 3.625 -5.8675 3.625 -5.1875 3.625 C-5.1875 2.965 -5.1875 2.305 -5.1875 1.625 C-2.1875 -0.375 -2.1875 -0.375 0 0 Z " fill="#3DA7E4" transform="translate(146.1875,402.375)"/>
<path d="M0 0 C0.66 0.33 1.32 0.66 2 1 C1.67 2.32 1.34 3.64 1 5 C-4.61 5 -10.22 5 -16 5 C-16 4.01 -16 3.02 -16 2 C-14.68 2 -13.36 2 -12 2 C-12 2.66 -12 3.32 -12 4 C-8.04 4 -4.08 4 0 4 C0 2.68 0 1.36 0 0 Z " fill="#0EA9FD" transform="translate(480,501)"/>
<path d="M0 0 C1.4800841 0.11362262 2.95910074 0.24122908 4.4375 0.375 C5.26121094 0.44460938 6.08492187 0.51421875 6.93359375 0.5859375 C7.95646484 0.79089844 7.95646484 0.79089844 9 1 C9.33 1.66 9.66 2.32 10 3 C8.68 3 7.36 3 6 3 C6 3.66 6 4.32 6 5 C3.03 4.67 0.06 4.34 -3 4 C-2.01 3.01 -1.02 2.02 0 1 C0 0.67 0 0.34 0 0 Z " fill="#2DC0FC" transform="translate(825,497)"/>
<path d="M0 0 C2.69082872 0.17635452 5.32851446 0.61835921 8 1 C7.67 1.99 7.34 2.98 7 4 C6.01 3.67 5.02 3.34 4 3 C4 4.98 4 6.96 4 9 C3.67 9 3.34 9 3 9 C3 7.35 3 5.7 3 4 C1.35 3.67 -0.3 3.34 -2 3 C-1 1 -1 1 0 0 Z " fill="#4CBAF9" transform="translate(372,476)"/>
<path d="M0 0 C0.99 0 1.98 0 3 0 C3 1.65 3 3.3 3 5 C-0.3 5 -3.6 5 -7 5 C-6.34 3.68 -5.68 2.36 -5 1 C-3.35 1.33 -1.7 1.66 0 2 C0 1.34 0 0.68 0 0 Z " fill="#2BAEF3" transform="translate(477,500)"/>
<path d="M0 0 C0.99 0.33 1.98 0.66 3 1 C3 8.92 3 16.84 3 25 C2.67 25 2.34 25 2 25 C2 18.07 2 11.14 2 4 C1.34 4 0.68 4 0 4 C0 2.68 0 1.36 0 0 Z " fill="#4DB6F2" transform="translate(361,473)"/>
<path d="M0 0 C0 1.32 0 2.64 0 4 C-3.63 3.67 -7.26 3.34 -11 3 C-6.577168 -0.317124 -5.28089024 -0.30466674 0 0 Z " fill="#48AFEA" transform="translate(711,474)"/>
<path d="M0 0 C0.66 0 1.32 0 2 0 C2.48828125 1.98567708 2.9765625 3.97135417 3.46484375 5.95703125 C3.91010705 7.65683202 4.44433985 9.33301954 5 11 C4.34 11.66 3.68 12.32 3 13 C-0.36055646 8.51925805 -0.27429625 5.39449293 0 0 Z " fill="#47B0EB" transform="translate(601,469)"/>
<path d="M0 0 C-0.33 2.31 -0.66 4.62 -1 7 C-3.475 6.01 -3.475 6.01 -6 5 C-6 3.68 -6 2.36 -6 1 C-4 0 -4 0 0 0 Z " fill="#2494F1" transform="translate(320,460)"/>
<path d="M0 0 C1 3 1 3 0 6 C1.32 6.33 2.64 6.66 4 7 C1.69 7 -0.62 7 -3 7 C-3.66 5.68 -4.32 4.36 -5 3 C-3.35 2.01 -1.7 1.02 0 0 Z " fill="#22A3FA" transform="translate(318,499)"/>
<path d="M0 0 C0.99 0.33 1.98 0.66 3 1 C2.67 2.65 2.34 4.3 2 6 C1.01 6.33 0.02 6.66 -1 7 C-1 6.34 -1 5.68 -1 5 C-2.32 4.34 -3.64 3.68 -5 3 C-2 1 -2 1 0 0 Z " fill="#35A0ED" transform="translate(774,496)"/>
<path d="M0 0 C1.65 0.33 3.3 0.66 5 1 C5 2.65 5 4.3 5 6 C2.03 5.505 2.03 5.505 -1 5 C-0.67 3.35 -0.34 1.7 0 0 Z " fill="#38B3F8" transform="translate(828,474)"/>
<path d="M0 0 C2 2 2 2 2.125 5.125 C2.08375 6.07375 2.0425 7.0225 2 8 C2.66 8 3.32 8 4 8 C4.33 9.32 4.66 10.64 5 12 C3.68 11.67 2.36 11.34 1 11 C0.12132271 7.26562152 -0.08912219 3.83225427 0 0 Z " fill="#3FB7F1" transform="translate(137,555)"/>
<path d="M0 0 C2.475 0.99 2.475 0.99 5 2 C4.67 2.99 4.34 3.98 4 5 C1.36 5 -1.28 5 -4 5 C-3.34 4.01 -2.68 3.02 -2 2 C-1.34 2 -0.68 2 0 2 C0 1.34 0 0.68 0 0 Z " fill="#48BCFB" transform="translate(683,500)"/>
<path d="M0 0 C1.65 0.33 3.3 0.66 5 1 C5 1.66 5 2.32 5 3 C5.66 3.33 6.32 3.66 7 4 C4.04335481 5.4783226 1.25770263 5.06032783 -2 5 C-1.34 3.35 -0.68 1.7 0 0 Z " fill="#29B1FC" transform="translate(556,501)"/>
<path d="M0 0 C-0.99 0.33 -1.98 0.66 -3 1 C-3 1.66 -3 2.32 -3 3 C-5.64 3.33 -8.28 3.66 -11 4 C-11 3.01 -11 2.02 -11 1 C-9.5437328 0.63743142 -8.08488815 0.28520207 -6.625 -0.0625 C-5.40683594 -0.35833984 -5.40683594 -0.35833984 -4.1640625 -0.66015625 C-2 -1 -2 -1 0 0 Z " fill="#3AABE7" transform="translate(678,474)"/>
<path d="M0 0 C0 0.99 0 1.98 0 3 C-2.95664519 4.4783226 -5.74229737 4.06032783 -9 4 C-8.67 3.01 -8.34 2.02 -8 1 C-5.23735711 0.40267181 -2.83967231 0 0 0 Z " fill="#42AEF0" transform="translate(742,473)"/>
<path d="M0 0 C0 0.99 0 1.98 0 3 C-2.70879335 4.35439668 -5.00933268 4.06501451 -8 4 C-7.67 3.01 -7.34 2.02 -7 1 C-4.53721199 -0.231394 -2.7204945 -0.07159196 0 0 Z " fill="#4BB6EE" transform="translate(296,567)"/>
<path d="M0 0 C2.00720923 0.28674418 4.0085944 0.61866701 6 1 C4 3 4 3 0.5234375 3.1953125 C-0.85950968 3.18201493 -2.24238654 3.15816232 -3.625 3.125 C-4.33140625 3.11597656 -5.0378125 3.10695313 -5.765625 3.09765625 C-7.51056098 3.07407603 -9.25532295 3.03820461 -11 3 C-11 2.67 -11 2.34 -11 2 C-10.28972656 1.93941406 -9.57945312 1.87882812 -8.84765625 1.81640625 C-7.46900391 1.69072266 -7.46900391 1.69072266 -6.0625 1.5625 C-5.14597656 1.48128906 -4.22945313 1.40007812 -3.28515625 1.31640625 C-1.03840268 1.23955024 -1.03840268 1.23955024 0 0 Z " fill="#0DB8FD" transform="translate(365,503)"/>
<path d="M0 0 C1.32 0.66 2.64 1.32 4 2 C4 3.32 4 4.64 4 6 C2.35 5.67 0.7 5.34 -1 5 C-1.33 4.01 -1.66 3.02 -2 2 C-1.34 2 -0.68 2 0 2 C0 1.34 0 0.68 0 0 Z " fill="#32ABF7" transform="translate(471,475)"/>
<path d="M0 0 C2.475 0.495 2.475 0.495 5 1 C5.33 3.31 5.66 5.62 6 8 C1.3125 4.38671875 1.3125 4.38671875 0 3 C0 2.01 0 1.02 0 0 Z " fill="#56B7ED" transform="translate(297,406)"/>
<path d="M0 0 C2.64 0.66 5.28 1.32 8 2 C8 2.33 8 2.66 8 3 C4.92382812 3.29296875 4.92382812 3.29296875 1.84765625 3.5859375 C1.23792969 3.72257812 0.62820313 3.85921875 0 4 C-0.33 4.66 -0.66 5.32 -1 6 C-3.0625 6.625 -3.0625 6.625 -5 7 C-5 6.01 -5 5.02 -5 4 C-4.360625 3.71125 -3.72125 3.4225 -3.0625 3.125 C-0.84793921 2.17176549 -0.84793921 2.17176549 0 0 Z " fill="#38A6DB" transform="translate(819,499)"/>
<path d="M0 0 C3 3 3 3 3.25 6.0625 C3 9 3 9 2 11 C0.68 10.67 -0.64 10.34 -2 10 C-1.34 10 -0.68 10 0 10 C0 6.7 0 3.4 0 0 Z " fill="#36ABFD" transform="translate(467,490)"/>
<path d="M0 0 C0.66 0 1.32 0 2 0 C2.66 2.31 3.32 4.62 4 7 C3.67 7.33 3.34 7.66 3 8 C2.76924918 9.34747084 2.58846937 10.70377565 2.4375 12.0625 C2.2209375 14.0115625 2.2209375 14.0115625 2 16 C1.34 15.67 0.68 15.34 0 15 C0 10.05 0 5.1 0 0 Z " fill="#52C3FA" transform="translate(395,483)"/>
<path d="M0 0 C0.66 0 1.32 0 2 0 C2 2.97 2 5.94 2 9 C1.01 8.67 0.02 8.34 -1 8 C-1.04241723 5.66705225 -1.04092937 3.33297433 -1 1 C-0.67 0.67 -0.34 0.34 0 0 Z " fill="#40AFDC" transform="translate(749,485)"/>
<path d="M0 0 C0.66 0 1.32 0 2 0 C2 0.66 2 1.32 2 2 C3.32 1.67 4.64 1.34 6 1 C6 1.99 6 2.98 6 4 C4.35 4 2.7 4 1 4 C0.67 5.65 0.34 7.3 0 9 C-0.33 9 -0.66 9 -1 9 C-0.67 6.03 -0.34 3.06 0 0 Z " fill="#43B1EF" transform="translate(702,483)"/>
<path d="M0 0 C1.32 0 2.64 0 4 0 C4 0.66 4 1.32 4 2 C4.66 2 5.32 2 6 2 C6.33 3.32 6.66 4.64 7 6 C4.0625 5.25 4.0625 5.25 1 4 C0.125 1.875 0.125 1.875 0 0 Z " fill="#34AAF1" transform="translate(606,481)"/>
<path d="M0 0 C1.8871875 0.0309375 1.8871875 0.0309375 3.8125 0.0625 C3.4825 1.0525 3.1525 2.0425 2.8125 3.0625 C-3.8125 3.3125 -3.8125 3.3125 -7.1875 1.0625 C-4.43671116 0.14557039 -2.82801087 -0.04636083 0 0 Z " fill="#2EACFC" transform="translate(765.1875,472.9375)"/>
<path d="M0 0 C6.625 -0.25 6.625 -0.25 10 2 C6.52674819 3.1577506 3.63932552 3.06866652 0 3 C0 2.01 0 1.02 0 0 Z " fill="#2EAFF6" transform="translate(793,473)"/>
<path d="M0 0 C0.33 0.66 0.66 1.32 1 2 C2.32 2 3.64 2 5 2 C5 1.34 5 0.68 5 0 C5.99 0.33 6.98 0.66 8 1 C6.25 3.0625 6.25 3.0625 4 5 C1.8125 4.875 1.8125 4.875 0 4 C-0.33 3.34 -0.66 2.68 -1 2 C-0.67 1.34 -0.34 0.68 0 0 Z " fill="#48ADE0" transform="translate(520,464)"/>
<path d="M0 0 C-0.6875 2.4375 -0.6875 2.4375 -2 5 C-4.625 5.8125 -4.625 5.8125 -7 6 C-7.33 5.34 -7.66 4.68 -8 4 C-7.34 4 -6.68 4 -6 4 C-6 3.34 -6 2.68 -6 2 C-2.25 0 -2.25 0 0 0 Z " fill="#41A7EB" transform="translate(630,498)"/>
<path d="M0 0 C4.455 0.99 4.455 0.99 9 2 C9 2.99 9 3.98 9 5 C8.01 5 7.02 5 6 5 C6 4.34 6 3.68 6 3 C4.68 3.33 3.36 3.66 2 4 C2 3.34 2 2.68 2 2 C1.34 2 0.68 2 0 2 C0 1.34 0 0.68 0 0 Z " fill="#3CC0F1" transform="translate(546,500)"/>
<path d="M0 0 C2.09749995 2.35968744 2.96905704 3.54616994 3.1875 6.75 C3.125625 7.4925 3.06375 8.235 3 9 C2.01 9.495 2.01 9.495 1 10 C1 8.68 1 7.36 1 6 C0.01 6.33 -0.98 6.66 -2 7 C-2 6.01 -2 5.02 -2 4 C-1.34 4.33 -0.68 4.66 0 5 C0 4.34 0 3.68 0 3 C-0.66 2.67 -1.32 2.34 -2 2 C-1.34 2 -0.68 2 0 2 C0 1.34 0 0.68 0 0 Z " fill="#31A4F7" transform="translate(548,486)"/>
<path d="M0 0 C0.66 0 1.32 0 2 0 C2.33 3.3 2.66 6.6 3 10 C2.01 10.33 1.02 10.66 0 11 C0 7.37 0 3.74 0 0 Z " fill="#45B4F3" transform="translate(357,485)"/>
<path d="M0 0 C0.99 0 1.98 0 3 0 C2.67 1.65 2.34 3.3 2 5 C0.35 5.33 -1.3 5.66 -3 6 C-3.33 5.34 -3.66 4.68 -4 4 C-2.68 3.67 -1.36 3.34 0 3 C0 2.01 0 1.02 0 0 Z " fill="#36A3F2" transform="translate(656,474)"/>
<path d="M0 0 C1.4540625 0.0309375 1.4540625 0.0309375 2.9375 0.0625 C3.2675 1.3825 3.5975 2.7025 3.9375 4.0625 C3.2775 4.0625 2.6175 4.0625 1.9375 4.0625 C1.9375 3.4025 1.9375 2.7425 1.9375 2.0625 C0.6175 2.0625 -0.7025 2.0625 -2.0625 2.0625 C-2.3925 2.7225 -2.7225 3.3825 -3.0625 4.0625 C-3.7225 3.7325 -4.3825 3.4025 -5.0625 3.0625 C-3.56765464 0.07280928 -3.56765464 0.07280928 0 0 Z " fill="#4AC0F6" transform="translate(466.0625,500.9375)"/>
<path d="M0 0 C1.32 0.66 2.64 1.32 4 2 C4 3.32 4 4.64 4 6 C1.69 6 -0.62 6 -3 6 C-2 4 -2 4 1 3 C0.67 2.01 0.34 1.02 0 0 Z " fill="#25A9F8" transform="translate(457,499)"/>
<path d="M0 0 C0.99 0.66 1.98 1.32 3 2 C2.34 3.32 1.68 4.64 1 6 C-0.32 6 -1.64 6 -3 6 C-3 4.35 -3 2.7 -3 1 C-2.01 0.67 -1.02 0.34 0 0 Z " fill="#24BBFB" transform="translate(385,499)"/>
<path d="M0 0 C0.66 0 1.32 0 2 0 C3.0625 1.8125 3.0625 1.8125 4 4 C3.67 4.99 3.34 5.98 3 7 C0 6 0 6 -1.1875 3.9375 C-1.5896875 2.9784375 -1.5896875 2.9784375 -2 2 C-1.34 1.34 -0.68 0.68 0 0 Z " fill="#3FA5E1" transform="translate(713,492)"/>
<path d="M0 0 C2.475 0.495 2.475 0.495 5 1 C4.67 2.32 4.34 3.64 4 5 C2.68 5 1.36 5 0 5 C0 3.35 0 1.7 0 0 Z " fill="#30B6FE" transform="translate(600,495)"/>
<path d="M0 0 C0.66 0 1.32 0 2 0 C2.66 1.98 3.32 3.96 4 6 C2.68 6 1.36 6 0 6 C-0.66 4.68 -1.32 3.36 -2 2 C-1.34 1.34 -0.68 0.68 0 0 Z " fill="#2FB2F9" transform="translate(768,477)"/>
<path d="M0 0 C0 0.99 0 1.98 0 3 C-1.1446875 2.9690625 -1.1446875 2.9690625 -2.3125 2.9375 C-5.10185786 2.87057159 -5.10185786 2.87057159 -8 4 C-8.66 3.67 -9.32 3.34 -10 3 C-10.33 3.66 -10.66 4.32 -11 5 C-11 4.01 -11 3.02 -11 2 C-3.375 0 -3.375 0 0 0 Z " fill="#2BABF4" transform="translate(382,473)"/>
<path d="M0 0 C6.75 -0.125 6.75 -0.125 9 1 C9 1.99 9 2.98 9 4 C7.35 4.33 5.7 4.66 4 5 C4.33 3.68 4.66 2.36 5 1 C3.35 1 1.7 1 0 1 C0 0.67 0 0.34 0 0 Z " fill="#3DA7DF" transform="translate(763,501)"/>
<path d="M0 0 C1.32 0.66 2.64 1.32 4 2 C3.67 3.32 3.34 4.64 3 6 C1.02 6 -0.96 6 -3 6 C-2.01 5.67 -1.02 5.34 0 5 C0 3.35 0 1.7 0 0 Z " fill="#1DB5FE" transform="translate(744,500)"/>
<path d="M0 0 C0.99 0 1.98 0 3 0 C3 2.97 3 5.94 3 9 C2.34 9 1.68 9 1 9 C1 6.69 1 4.38 1 2 C0.34 1.67 -0.32 1.34 -1 1 C-0.67 0.67 -0.34 0.34 0 0 Z " fill="#2EB8FD" transform="translate(750,483)"/>
<path d="M0 0 C1.65 0 3.3 0 5 0 C5 0.66 5 1.32 5 2 C6.32 2 7.64 2 9 2 C8.67 2.99 8.34 3.98 8 5 C6.0625 4.6875 6.0625 4.6875 4 4 C3.67 3.01 3.34 2.02 3 1 C2.01 0.67 1.02 0.34 0 0 Z " fill="#35A8DA" transform="translate(683,479)"/>
<path d="M0 0 C0 0.66 0 1.32 0 2 C0.66 2.33 1.32 2.66 2 3 C-0.64738916 4.4606285 -1.89448334 5 -5 5 C-4.625 3.0625 -4.625 3.0625 -4 1 C-2 0 -2 0 0 0 Z " fill="#34A8F6" transform="translate(492,475)"/>
<path d="M0 0 C0.66 0.66 1.32 1.32 2 2 C0.02 4.97 0.02 4.97 -2 8 C-3.0625 6.125 -3.0625 6.125 -4 4 C-3.67 3.34 -3.34 2.68 -3 2 C-2.01 2 -1.02 2 0 2 C0 1.34 0 0.68 0 0 Z " fill="#2FBCFA" transform="translate(434,475)"/>
<path d="M0 0 C1.2065625 0.0309375 1.2065625 0.0309375 2.4375 0.0625 C2.4375 0.7225 2.4375 1.3825 2.4375 2.0625 C1.4475 2.7225 0.4575 3.3825 -0.5625 4.0625 C-0.5625 4.7225 -0.5625 5.3825 -0.5625 6.0625 C-1.5525 6.0625 -2.5425 6.0625 -3.5625 6.0625 C-3.605221 4.39638095 -3.60313832 2.72867115 -3.5625 1.0625 C-2.5625 0.0625 -2.5625 0.0625 0 0 Z " fill="#40B1F1" transform="translate(397.5625,474.9375)"/>
<path d="M0 0 C2.31 0 4.62 0 7 0 C7 0.99 7 1.98 7 3 C4.69 3 2.38 3 0 3 C0 2.01 0 1.02 0 0 Z " fill="#44BCFA" transform="translate(820,473)"/>
<path d="M0 0 C0.33 0.66 0.66 1.32 1 2 C2.65 2 4.3 2 6 2 C5.01 2.99 4.02 3.98 3 5 C0.525 4.01 0.525 4.01 -2 3 C-2 2.34 -2 1.68 -2 1 C-1.34 0.67 -0.68 0.34 0 0 Z " fill="#31A2F3" transform="translate(490,500)"/>
<path d="M0 0 C2.71631546 0.90543849 5.34771188 1.92474806 8 3 C8 3.33 8 3.66 8 4 C5.03 4 2.06 4 -1 4 C-1.33 3.34 -1.66 2.68 -2 2 C-1.34 2 -0.68 2 0 2 C0 1.34 0 0.68 0 0 Z " fill="#2698F8" transform="translate(416,502)"/>
<path d="M0 0 C0.66 0 1.32 0 2 0 C2.66 1.65 3.32 3.3 4 5 C2.68 5.33 1.36 5.66 0 6 C-1.125 2.25 -1.125 2.25 0 0 Z " fill="#1FA0FC" transform="translate(352,500)"/>
<path d="M0 0 C-0.33 0.99 -0.66 1.98 -1 3 C-3.97 3 -6.94 3 -10 3 C-9.67 2.34 -9.34 1.68 -9 1 C-5.98003217 0.45091494 -3.07380605 0 0 0 Z " fill="#2EAFF8" transform="translate(523,502)"/>
<path d="M0 0 C0.66 0 1.32 0 2 0 C2 0.66 2 1.32 2 2 C2.66 2 3.32 2 4 2 C4 2.66 4 3.32 4 4 C5.32 4.33 6.64 4.66 8 5 C5.6875 5.6875 5.6875 5.6875 3 6 C1.1875 4.75 1.1875 4.75 0 3 C0 2.01 0 1.02 0 0 Z " fill="#43AAEE" transform="translate(783,498)"/>
<path d="M0 0 C0.66 0 1.32 0 2 0 C2.66 2.64 3.32 5.28 4 8 C2.68 7.67 1.36 7.34 0 7 C0.66 7 1.32 7 2 7 C2 6.34 2 5.68 2 5 C1.34 5 0.68 5 0 5 C0 3.35 0 1.7 0 0 Z " fill="#52B6F1" transform="translate(643,487)"/>
<path d="M0 0 C0.99 0 1.98 0 3 0 C3 3.3 3 6.6 3 10 C2.67 10 2.34 10 2 10 C2 8.02 2 6.04 2 4 C0.68 3.67 -0.64 3.34 -2 3 C-1.34 3 -0.68 3 0 3 C0 2.01 0 1.02 0 0 Z " fill="#53B8EB" transform="translate(253,477)"/>
<path d="M0 0 C6.0546875 -0.1953125 6.0546875 -0.1953125 8 0 C8.66 0.66 9.32 1.32 10 2 C5.545 2.495 5.545 2.495 1 3 C0.67 2.01 0.34 1.02 0 0 Z " fill="#289EF7" transform="translate(461,473)"/>
<path d="M0 0 C0.33 0 0.66 0 1 0 C1.144375 0.763125 1.28875 1.52625 1.4375 2.3125 C1.9632594 5.08172908 1.9632594 5.08172908 3 8 C1.35 8.33 -0.3 8.66 -2 9 C-1.34 8.67 -0.68 8.34 0 8 C0 7.01 0 6.02 0 5 C-0.66 4.67 -1.32 4.34 -2 4 C-1.34 2.68 -0.68 1.36 0 0 Z " fill="#60C0F2" transform="translate(627,466)"/>
<path d="M0 0 C1.65 0 3.3 0 5 0 C4.34 1.32 3.68 2.64 3 4 C3.66 4.33 4.32 4.66 5 5 C3.35 5 1.7 5 0 5 C0 3.35 0 1.7 0 0 Z " fill="#4FB3EA" transform="translate(178,458)"/>
<path d="M0 0 C0.99 0 1.98 0 3 0 C3 1.65 3 3.3 3 5 C1.68 5.33 0.36 5.66 -1 6 C-0.67 4.02 -0.34 2.04 0 0 Z " fill="#4BB2EC" transform="translate(300,559)"/>
<path d="M0 0 C2.64 0 5.28 0 8 0 C8.33 1.32 8.66 2.64 9 4 C8.01 4 7.02 4 6 4 C6 3.34 6 2.68 6 2 C3.03 1.505 3.03 1.505 0 1 C0 0.67 0 0.34 0 0 Z " fill="#37ADE4" transform="translate(329,501)"/>
<path d="M0 0 C0.66 0.33 1.32 0.66 2 1 C1.67 1.99 1.34 2.98 1 4 C-2.5625 5.1875 -2.5625 5.1875 -6 6 C-6 5.34 -6 4.68 -6 4 C-4.03852126 2.61061923 -2.03833424 1.2739589 0 0 Z " fill="#4CBDF2" transform="translate(518,498)"/>
<path d="M0 0 C2 2 2 2 2.125 4.625 C2.08375 5.40875 2.0425 6.1925 2 7 C1.01 7 0.02 7 -1 7 C-1.04254356 5.00045254 -1.04080783 2.99958364 -1 1 C-0.67 0.67 -0.34 0.34 0 0 Z " fill="#3CAEE6" transform="translate(412,493)"/>
<path d="M0 0 C0.33 0 0.66 0 1 0 C1.33 3.96 1.66 7.92 2 12 C0.68 12 -0.64 12 -2 12 C-1.34 8.04 -0.68 4.08 0 0 Z " fill="#36B1EA" transform="translate(681,490)"/>
<path d="M0 0 C1.99097846 2.98646769 2.94124926 5.59687262 4 9 C3.34 9.66 2.68 10.32 2 11 C0.19769832 7.17010894 -0.19622241 4.21878192 0 0 Z " fill="#2CADFC" transform="translate(717,482)"/>
<path d="M0 0 C1.32 0.33 2.64 0.66 4 1 C3.67 2.98 3.34 4.96 3 7 C2.01 6.34 1.02 5.68 0 5 C-0.1875 2.375 -0.1875 2.375 0 0 Z " fill="#22BBFD" transform="translate(534,478)"/>
<path d="M0 0 C2 3 2 3 2 7 C0.68 6.67 -0.64 6.34 -2 6 C-1.49396008 3.83125748 -1.00016187 2.00032373 0 0 Z " fill="#56A1D4" transform="translate(348,468)"/>
<path d="M0 0 C2.6875 0.3125 2.6875 0.3125 5 1 C5 1.66 5 2.32 5 3 C2.36 3 -0.28 3 -3 3 C-1.8125 1.4375 -1.8125 1.4375 0 0 Z " fill="#2DB3FB" transform="translate(330,502)"/>
<path d="M0 0 C0.66 0.33 1.32 0.66 2 1 C1.67 2.65 1.34 4.3 1 6 C1.66 6 2.32 6 3 6 C3 6.66 3 7.32 3 8 C1.68 8 0.36 8 -1 8 C-0.67 5.36 -0.34 2.72 0 0 Z " fill="#2CBBFC" transform="translate(790,494)"/>
<path d="M0 0 C0.66 0.33 1.32 0.66 2 1 C2 2.32 2 3.64 2 5 C1.01 5.33 0.02 5.66 -1 6 C-1 5.34 -1 4.68 -1 4 C-1.66 4 -2.32 4 -3 4 C-3 3.34 -3 2.68 -3 2 C-2.01 1.34 -1.02 0.68 0 0 Z " fill="#4DBCF6" transform="translate(678,473)"/>
<path d="M0 0 C0.33 0.66 0.66 1.32 1 2 C-0.32 3.32 -1.64 4.64 -3 6 C-3.99 5.67 -4.98 5.34 -6 5 C-5.67 4.01 -5.34 3.02 -5 2 C-3.02 2.495 -3.02 2.495 -1 3 C-0.67 2.01 -0.34 1.02 0 0 Z " fill="#20A5FC" transform="translate(606,500)"/>
<path d="M0 0 C2.475 0.99 2.475 0.99 5 2 C4.67 2.99 4.34 3.98 4 5 C3.01 5 2.02 5 1 5 C0.67 3.35 0.34 1.7 0 0 Z " fill="#1EA5FA" transform="translate(579,500)"/>
<path d="M0 0 C0.99 0 1.98 0 3 0 C2.3125 1.9375 2.3125 1.9375 1 4 C-1.625 4.75 -1.625 4.75 -4 5 C-4 4.01 -4 3.02 -4 2 C-2.68 2 -1.36 2 0 2 C0 1.34 0 0.68 0 0 Z " fill="#41ABEF" transform="translate(831,500)"/>
<path d="M0 0 C1.65 0 3.3 0 5 0 C5 0.99 5 1.98 5 3 C3.35 3.33 1.7 3.66 0 4 C0 2.68 0 1.36 0 0 Z " fill="#5DB8EF" transform="translate(812,493)"/>
<path d="M0 0 C0.99 0 1.98 0 3 0 C3.66 2.31 4.32 4.62 5 7 C4.566875 6.54625 4.13375 6.0925 3.6875 5.625 C1.89201658 3.79975666 1.89201658 3.79975666 -1 2 C-0.67 1.34 -0.34 0.68 0 0 Z " fill="#3F97F5" transform="translate(555,476)"/>
<path d="M0 0 C0 0.99 0 1.98 0 3 C-2.64 2.67 -5.28 2.34 -8 2 C-4.91190305 0.23537317 -3.76687864 0 0 0 Z " fill="#3DABE7" transform="translate(523,474)"/>
<path d="M0 0 C2.31 0 4.62 0 7 0 C7 0.66 7 1.32 7 2 C2.25 3.125 2.25 3.125 0 2 C0 1.34 0 0.68 0 0 Z " fill="#2EA0E8" transform="translate(357,466)"/>
</svg>
